999
ECAD_EXPORT_AT:2026-10-01T23:57:48.633Z
  0
SECTION
  2
HEADER
  9
$ACADVER
  1
AC1015
  9
$DWGCODEPAGE
  3
ANSI_932
  9
$HANDSEED
  5
53D
  9
$INSUNITS
 70
4
  9
$MEASUREMENT
 70
1
  9
$EXTMIN
 10
0.000
 20
0.000
 30
0.0
  9
$EXTMAX
 10
840.000
 20
594.000
 30
0.0
  9
$LIMMIN
 10
0.0
 20
0.0
  9
$LIMMAX
 10
420.0
 20
297.0
  9
$CLAYER
  8
0
  9
$CELTYPE
  6
BYLAYER
  9
$CCOLOR
 62
256
  9
$CELWEIGHT
370
-1
  9
$LWDISPLAY
290
0
  9
$LTSCALE
 40
1.0
  9
$LUNITS
 70
2
  9
$LUPREC
 70
4
  9
$AUNITS
 70
0
  9
$AUPREC
 70
0
  9
$TEXTSTYLE
  7
STANDARD
  9
$DIMSTYLE
  2
STANDARD
  9
$PSTYLEMODE
290
1
  9
$EXTNAMES
290
1
  9
$TREEDEPTH
 70
3020
  9
$ANGBASE
 50
0.0
  9
$ANGDIR
 70
0
  9
$PDMODE
 70
0
  9
$PDSIZE
 40
0.0
  9
$LIMCHECK
 70
0
  9
$UNITMODE
 70
0
  9
$ORTHOMODE
 70
0
  9
$REGENMODE
 70
1
  9
$FILLMODE
 70
1
  9
$QTEXTMODE
 70
0
  9
$MIRRTEXT
 70
0
  9
$WORLDVIEW
 70
1
  9
$TILEMODE
 70
1
  9
$PLIMCHECK
 70
0
  9
$VISRETAIN
 70
1
  9
$MAXACTVP
 70
64
  9
$PROXYGRAPHICS
 70
1
  0
ENDSEC
  0
SECTION
  2
CLASSES
  0
CLASS
  1
ACDBDICTIONARYWDFLT
  2
AcDbDictionaryWithDefault
  3
ObjectDBX Classes
 90
0
280
0
281
0
  0
CLASS
  1
ACDBPLACEHOLDER
  2
AcDbPlaceHolder
  3
ObjectDBX Classes
 90
0
280
0
281
0
  0
CLASS
  1
LAYOUT
  2
AcDbLayout
  3
ObjectDBX Classes
 90
0
280
0
281
0
  0
ENDSEC
  0
SECTION
  2
TABLES
  0
TABLE
  2
VPORT
  5
200
100
AcDbSymbolTable
 70
1
  0
VPORT
  5
201
100
AcDbSymbolTableRecord
100
AcDbViewportTableRecord
  2
*ACTIVE
 70
0
 10
0.0
 20
0.0
 11
1.0
 21
1.0
 12
420.00
 22
297.00
 13
0.0
 23
0.0
 14
10.0
 24
10.0
 15
10.0
 25
10.0
 16
0.0
 26
0.0
 36
1.0
 17
0.0
 27
0.0
 37
0.0
 40
840.00
 41
1.5
 42
50.0
 43
0.0
 44
0.0
 50
0.0
 51
0.0
 71
0
 72
100
 73
1
 74
3
 75
0
 76
0
 77
0
 78
0
  0
ENDTAB
  0
TABLE
  2
LTYPE
  5
202
100
AcDbSymbolTable
 70
6
  0
LTYPE
  5
203
100
AcDbSymbolTableRecord
100
AcDbLinetypeTableRecord
  2
ByBlock
 70
0
  3

 72
65
 73
0
 40
0.0
  0
LTYPE
  5
204
100
AcDbSymbolTableRecord
100
AcDbLinetypeTableRecord
  2
ByLayer
 70
0
  3

 72
65
 73
0
 40
0.0
  0
LTYPE
  5
205
100
AcDbSymbolTableRecord
100
AcDbLinetypeTableRecord
  2
CONTINUOUS
 70
0
  3
Solid line
 72
65
 73
0
 40
0.0
  0
LTYPE
  5
206
100
AcDbSymbolTableRecord
100
AcDbLinetypeTableRecord
  2
DASHED
 70
0
  3
Dashed
 72
65
 73
2
 40
9.5
  49
6.35
  74
0
  49
-3.175
  74
0
  0
LTYPE
  5
207
100
AcDbSymbolTableRecord
100
AcDbLinetypeTableRecord
  2
DOT
 70
0
  3
Dot
 72
65
 73
2
 40
3.175
  49
0.0
  74
0
  49
-3.175
  74
0
  0
LTYPE
  5
208
100
AcDbSymbolTableRecord
100
AcDbLinetypeTableRecord
  2
DASHDOT
 70
0
  3
Dash dot
 72
65
 73
4
 40
12.7
  49
6.35
  74
0
  49
-3.175
  74
0
  49
0.0
  74
0
  49
-3.175
  74
0
  0
ENDTAB
  0
TABLE
  2
LAYER
  5
209
100
AcDbSymbolTable
 70
8
  0
LAYER
  5
20A
330
209
100
AcDbSymbolTableRecord
100
AcDbLayerTableRecord
  2
0
 70
0
 62
7
  6
CONTINUOUS
370
35
390
226
  0
LAYER
  5
20B
330
209
100
AcDbSymbolTableRecord
100
AcDbLayerTableRecord
  2
CIRCUIT
 70
0
 62
2
  6
CONTINUOUS
370
50
390
226
  0
LAYER
  5
20C
330
209
100
AcDbSymbolTableRecord
100
AcDbLayerTableRecord
  2
WIRE
 70
0
 62
5
  6
CONTINUOUS
370
100
390
226
  0
LAYER
  5
20D
330
209
100
AcDbSymbolTableRecord
100
AcDbLayerTableRecord
  2
NOTE
 70
0
 62
3
  6
CONTINUOUS
370
100
390
226
  0
LAYER
  5
20E
330
209
100
AcDbSymbolTableRecord
100
AcDbLayerTableRecord
  2
OUTLINE
 70
0
 62
6
  6
CONTINUOUS
370
100
390
226
  0
LAYER
  5
20F
330
209
100
AcDbSymbolTableRecord
100
AcDbLayerTableRecord
  2
FRAME
 70
0
 62
4
  6
CONTINUOUS
370
100
390
226
  0
LAYER
  5
210
330
209
100
AcDbSymbolTableRecord
100
AcDbLayerTableRecord
  2
DIM
 70
0
 62
1
  6
CONTINUOUS
370
100
390
226
  0
LAYER
  5
211
330
209
100
AcDbSymbolTableRecord
100
AcDbLayerTableRecord
  2
DIM_VIS
 70
0
 62
1
  6
CONTINUOUS
370
-3
390
226
  0
ENDTAB
  0
TABLE
  2
STYLE
  5
212
100
AcDbSymbolTable
 70
1
  0
STYLE
  5
213
100
AcDbSymbolTableRecord
100
AcDbTextStyleTableRecord
  2
STANDARD
 70
0
 40
0.0
 41
1.0
 50
0.0
 71
0
 42
2.5
  3
arial.ttf
  4

1001
ACAD
1000
Arial
1071
34
  0
ENDTAB
  0
TABLE
  2
VIEW
  5
214
100
AcDbSymbolTable
 70
0
  0
ENDTAB
  0
TABLE
  2
UCS
  5
215
100
AcDbSymbolTable
 70
0
  0
ENDTAB
  0
TABLE
  2
APPID
  5
216
100
AcDbSymbolTable
 70
1
  0
APPID
  5
217
100
AcDbSymbolTableRecord
100
AcDbRegAppTableRecord
  2
ACAD
 70
0
  0
ENDTAB
  0
TABLE
  2
DIMSTYLE
  5
218
100
AcDbSymbolTable
 70
1
100
AcDbDimStyleTable
  0
DIMSTYLE
105
219
330
218
100
AcDbSymbolTableRecord
100
AcDbDimStyleTableRecord
  2
STANDARD
 70
0
 40
1.0
 41
2.5
 42
0.625
 43
3.75
 44
1.25
 45
0.0
 46
0.0
 47
0.0
 48
0.0
140
2.5
141
2.5
142
0.0
143
25.4
144
1.0
145
0.0
146
1.0
147
0.625
 71
0
 72
0
 73
0
 74
0
 75
0
 76
0
 77
0
 78
8
 79
0
170
0
171
2
172
0
173
0
174
0
175
0
176
0
177
0
178
0
270
2
271
2
272
2
273
2
274
2
340
213
275
0
276
0
277
0
278
0
279
0
280
0
281
0
282
0
283
1
284
0
285
0
286
0
287
3
288
0
  0
ENDTAB
  0
TABLE
  2
BLOCK_RECORD
  5
21A
100
AcDbSymbolTable
 70
31
  0
BLOCK_RECORD
  5
21B
100
AcDbSymbolTableRecord
100
AcDbBlockTableRecord
  2
*MODEL_SPACE
 70
0
  0
BLOCK_RECORD
  5
21C
100
AcDbSymbolTableRecord
100
AcDbBlockTableRecord
  2
*PAPER_SPACE
 70
0
  0
BLOCK_RECORD
  5
22C
100
AcDbSymbolTableRecord
100
AcDbBlockTableRecord
  2
custom_mryh1kfx_dlh
 70
0
  0
BLOCK_RECORD
  5
22D
100
AcDbSymbolTableRecord
100
AcDbBlockTableRecord
  2
custom_msc103jp_uzb
 70
0
  0
BLOCK_RECORD
  5
22E
100
AcDbSymbolTableRecord
100
AcDbBlockTableRecord
  2
custom_ms9tr3a8_yrh
 70
0
  0
BLOCK_RECORD
  5
22F
100
AcDbSymbolTableRecord
100
AcDbBlockTableRecord
  2
custom_msa5z5xf_606
 70
0
  0
BLOCK_RECORD
  5
230
100
AcDbSymbolTableRecord
100
AcDbBlockTableRecord
  2
custom_msa78t87_vx2
 70
0
  0
BLOCK_RECORD
  5
231
100
AcDbSymbolTableRecord
100
AcDbBlockTableRecord
  2
custom_msaajw9n_hjs
 70
0
  0
BLOCK_RECORD
  5
232
100
AcDbSymbolTableRecord
100
AcDbBlockTableRecord
  2
custom_msbxi3vy_u8w
 70
0
  0
BLOCK_RECORD
  5
233
100
AcDbSymbolTableRecord
100
AcDbBlockTableRecord
  2
custom_msbxksjn_0vz
 70
0
  0
BLOCK_RECORD
  5
234
100
AcDbSymbolTableRecord
100
AcDbBlockTableRecord
  2
custom_msbxnsrr_9fd
 70
0
  0
BLOCK_RECORD
  5
235
100
AcDbSymbolTableRecord
100
AcDbBlockTableRecord
  2
custom_msc00gdv_sy4
 70
0
  0
BLOCK_RECORD
  5
236
100
AcDbSymbolTableRecord
100
AcDbBlockTableRecord
  2
custom_msc0tnf8_xh3
 70
0
  0
BLOCK_RECORD
  5
237
100
AcDbSymbolTableRecord
100
AcDbBlockTableRecord
  2
custom_msc1f3od_brf
 70
0
  0
BLOCK_RECORD
  5
238
100
AcDbSymbolTableRecord
100
AcDbBlockTableRecord
  2
lib_JIS_C_0617______RY-A_S1V
 70
0
  0
BLOCK_RECORD
  5
239
100
AcDbSymbolTableRecord
100
AcDbBlockTableRecord
  2
lib_JIS_C_0617______MC-3P_F1V
 70
0
  0
BLOCK_RECORD
  5
23A
100
AcDbSymbolTableRecord
100
AcDbBlockTableRecord
  2
lib_JIS_C_0617______MCCB_T1V
 70
0
  0
BLOCK_RECORD
  5
23B
100
AcDbSymbolTableRecord
100
AcDbBlockTableRecord
  2
custom_msa5suje_ot5
 70
0
  0
BLOCK_RECORD
  5
23C
100
AcDbSymbolTableRecord
100
AcDbBlockTableRecord
  2
custom_msctfsfu_t61
 70
0
  0
BLOCK_RECORD
  5
23D
100
AcDbSymbolTableRecord
100
AcDbBlockTableRecord
  2
lib_JIS_C_0617______LS-B_S1V
 70
0
  0
BLOCK_RECORD
  5
23E
100
AcDbSymbolTableRecord
100
AcDbBlockTableRecord
  2
custom_msekru4r_trn
 70
0
  0
BLOCK_RECORD
  5
23F
100
AcDbSymbolTableRecord
100
AcDbBlockTableRecord
  2
lib_JIS_C_0617______PBS-B_S1H
 70
0
  0
BLOCK_RECORD
  5
240
100
AcDbSymbolTableRecord
100
AcDbBlockTableRecord
  2
custom_msemh9hr_ahw
 70
0
  0
BLOCK_RECORD
  5
241
100
AcDbSymbolTableRecord
100
AcDbBlockTableRecord
  2
custom_mt57jxh7_ei3
 70
0
  0
BLOCK_RECORD
  5
242
100
AcDbSymbolTableRecord
100
AcDbBlockTableRecord
  2
custom_mt57stff_0vh
 70
0
  0
BLOCK_RECORD
  5
243
100
AcDbSymbolTableRecord
100
AcDbBlockTableRecord
  2
custom_mt6pr5m0_e2z
 70
0
  0
BLOCK_RECORD
  5
244
100
AcDbSymbolTableRecord
100
AcDbBlockTableRecord
  2
custom_mt6q6rw0_dez
 70
0
  0
BLOCK_RECORD
  5
245
100
AcDbSymbolTableRecord
100
AcDbBlockTableRecord
  2
custom_muajd69w_hi7
 70
0
  0
BLOCK_RECORD
  5
246
100
AcDbSymbolTableRecord
100
AcDbBlockTableRecord
  2
custom_muc0o9zb_dgj
 70
0
  0
BLOCK_RECORD
  5
247
100
AcDbSymbolTableRecord
100
AcDbBlockTableRecord
  2
custom_mueugeai_v8q
 70
0
  0
BLOCK_RECORD
  5
248
100
AcDbSymbolTableRecord
100
AcDbBlockTableRecord
  2
custom_mug7x4o2_j2y
 70
0
  0
ENDTAB
  0
ENDSEC
  0
SECTION
  2
BLOCKS
  0
BLOCK
  5
249
100
AcDbEntity
  8
0
100
AcDbBlockBegin
  2
*MODEL_SPACE
 70
0
 10
0.0
 20
0.0
 30
0.0
  3
*MODEL_SPACE
  1

  0
ENDBLK
  5
24A
100
AcDbEntity
  8
0
100
AcDbBlockEnd
  0
BLOCK
  5
24B
100
AcDbEntity
  8
0
100
AcDbBlockBegin
  2
*PAPER_SPACE
 70
0
 10
0.0
 20
0.0
 30
0.0
  3
*PAPER_SPACE
  1

  0
ENDBLK
  5
24C
100
AcDbEntity
  8
0
100
AcDbBlockEnd
  0
BLOCK
  5
24D
100
AcDbEntity
  8
0
100
AcDbBlockBegin
  2
custom_mryh1kfx_dlh
 70
0
 10
0.0
 20
0.0
 30
0.0
  3
custom_mryh1kfx_dlh
  1

  0
LINE
  5
287
100
AcDbEntity
  8
0
100
AcDbLine
 10
0.000
 20
-14.000
 30
0.0
 11
-14.000
 21
16.000
 31
0.0
  0
LINE
  5
288
100
AcDbEntity
  8
0
100
AcDbLine
 10
0.000
 20
-14.000
 30
0.0
 11
0.000
 21
-27.000
 31
0.0
  0
LINE
  5
289
100
AcDbEntity
  8
0
100
AcDbLine
 10
0.000
 20
13.000
 30
0.0
 11
0.000
 21
27.000
 31
0.0
  0
ENDBLK
  5
24E
100
AcDbEntity
  8
0
100
AcDbBlockEnd
  0
BLOCK
  5
24F
100
AcDbEntity
  8
0
100
AcDbBlockBegin
  2
custom_msc103jp_uzb
 70
0
 10
0.0
 20
0.0
 30
0.0
  3
custom_msc103jp_uzb
  1

  0
LINE
  5
28A
100
AcDbEntity
  8
0
100
AcDbLine
 10
0.000
 20
-20.000
 30
0.0
 11
16.000
 21
24.000
 31
0.0
  0
LINE
  5
28B
100
AcDbEntity
  8
0
100
AcDbLine
 10
0.000
 20
-20.000
 30
0.0
 11
0.000
 21
-40.000
 31
0.0
  0
LINE
  5
28C
100
AcDbEntity
  8
0
100
AcDbLine
 10
0.000
 20
40.000
 30
0.0
 11
0.000
 21
20.000
 31
0.0
  0
LINE
  5
28D
100
AcDbEntity
  8
0
100
AcDbLine
 10
0.000
 20
20.000
 30
0.0
 11
20.000
 21
20.000
 31
0.0
  0
ENDBLK
  5
250
100
AcDbEntity
  8
0
100
AcDbBlockEnd
  0
BLOCK
  5
251
100
AcDbEntity
  8
0
100
AcDbBlockBegin
  2
custom_ms9tr3a8_yrh
 70
0
 10
0.0
 20
0.0
 30
0.0
  3
custom_ms9tr3a8_yrh
  1

  0
LINE
  5
28E
100
AcDbEntity
  8
0
100
AcDbLine
 10
0.000
 20
-11.000
 30
0.0
 11
-14.000
 21
17.000
 31
0.0
  0
LINE
  5
28F
100
AcDbEntity
  8
0
100
AcDbLine
 10
0.000
 20
-11.000
 30
0.0
 11
0.000
 21
-25.000
 31
0.0
  0
LINE
  5
290
100
AcDbEntity
  8
0
100
AcDbLine
 10
-4.000
 20
20.000
 30
0.0
 11
4.000
 21
11.000
 31
0.0
  0
LINE
  5
291
100
AcDbEntity
  8
0
100
AcDbLine
 10
4.000
 20
20.000
 30
0.0
 11
-4.000
 21
11.000
 31
0.0
  0
LINE
  5
292
100
AcDbEntity
  8
0
100
AcDbLine
 10
0.000
 20
29.000
 30
0.0
 11
0.000
 21
15.000
 31
0.0
  0
ENDBLK
  5
252
100
AcDbEntity
  8
0
100
AcDbBlockEnd
  0
BLOCK
  5
253
100
AcDbEntity
  8
0
100
AcDbBlockBegin
  2
custom_msa5z5xf_606
 70
0
 10
0.0
 20
0.0
 30
0.0
  3
custom_msa5z5xf_606
  1

  0
ARC
  5
293
100
AcDbEntity
  8
0
100
AcDbCircle
 10
0.000
 20
7.000
 30
0.0
 40
3.000
100
AcDbArc
 50
90.000
 51
270.000
  0
LINE
  5
294
100
AcDbEntity
  8
0
100
AcDbLine
 10
-9.000
 20
7.000
 30
0.0
 11
0.000
 21
-10.000
 31
0.0
  0
LINE
  5
295
100
AcDbEntity
  8
0
100
AcDbLine
 10
0.000
 20
4.000
 30
0.0
 11
0.000
 21
14.000
 31
0.0
  0
LINE
  5
296
100
AcDbEntity
  8
0
100
AcDbLine
 10
0.000
 20
-10.000
 30
0.0
 11
0.000
 21
-14.000
 31
0.0
  0
ENDBLK
  5
254
100
AcDbEntity
  8
0
100
AcDbBlockEnd
  0
BLOCK
  5
255
100
AcDbEntity
  8
0
100
AcDbBlockBegin
  2
custom_msa78t87_vx2
 70
0
 10
0.0
 20
0.0
 30
0.0
  3
custom_msa78t87_vx2
  1

  0
LINE
  5
297
100
AcDbEntity
  8
0
100
AcDbLine
 10
0.000
 20
5.000
 30
0.0
 11
10.000
 21
5.000
 31
0.0
  0
LINE
  5
298
100
AcDbEntity
  8
0
100
AcDbLine
 10
10.000
 20
-5.000
 30
0.0
 11
10.000
 21
5.000
 31
0.0
  0
LINE
  5
299
100
AcDbEntity
  8
0
100
AcDbLine
 10
10.000
 20
-5.000
 30
0.0
 11
0.000
 21
-5.000
 31
0.0
  0
LINE
  5
29A
100
AcDbEntity
  8
0
100
AcDbLine
 10
0.000
 20
5.000
 30
0.0
 11
0.000
 21
15.000
 31
0.0
  0
LINE
  5
29B
100
AcDbEntity
  8
0
100
AcDbLine
 10
0.000
 20
-5.000
 30
0.0
 11
0.000
 21
-15.000
 31
0.0
  0
ENDBLK
  5
256
100
AcDbEntity
  8
0
100
AcDbBlockEnd
  0
BLOCK
  5
257
100
AcDbEntity
  8
0
100
AcDbBlockBegin
  2
custom_msaajw9n_hjs
 70
0
 10
0.0
 20
0.0
 30
0.0
  3
custom_msaajw9n_hjs
  1

  0
CIRCLE
  5
29C
100
AcDbEntity
  8
0
100
AcDbCircle
 10
0.000
 20
-30.000
 30
0.0
 40
8.000
  0
LINE
  5
29D
100
AcDbEntity
  8
0
100
AcDbLine
 10
0.000
 20
-10.000
 30
0.0
 11
-20.000
 21
34.000
 31
0.0
  0
LINE
  5
29E
100
AcDbEntity
  8
0
100
AcDbLine
 10
4.000
 20
-26.000
 30
0.0
 11
-4.000
 21
-34.000
 31
0.0
  0
LINE
  5
29F
100
AcDbEntity
  8
0
100
AcDbLine
 10
0.000
 20
-10.000
 30
0.0
 11
0.000
 21
-50.000
 31
0.0
  0
LINE
  5
2A0
100
AcDbEntity
  8
0
100
AcDbLine
 10
6.000
 20
36.000
 30
0.0
 11
-6.000
 21
24.000
 31
0.0
  0
LINE
  5
2A1
100
AcDbEntity
  8
0
100
AcDbLine
 10
-6.000
 20
36.000
 30
0.0
 11
6.000
 21
24.000
 31
0.0
  0
LINE
  5
2A2
100
AcDbEntity
  8
0
100
AcDbLine
 10
0.000
 20
50.000
 30
0.0
 11
0.000
 21
30.000
 31
0.0
  0
ENDBLK
  5
258
100
AcDbEntity
  8
0
100
AcDbBlockEnd
  0
BLOCK
  5
259
100
AcDbEntity
  8
0
100
AcDbBlockBegin
  2
custom_msbxi3vy_u8w
 70
0
 10
0.0
 20
0.0
 30
0.0
  3
custom_msbxi3vy_u8w
  1

  0
LINE
  5
2A3
100
AcDbEntity
  8
0
100
AcDbLine
 10
0.000
 20
-20.000
 30
0.0
 11
-20.000
 21
24.000
 31
0.0
  0
LINE
  5
2A4
100
AcDbEntity
  8
0
100
AcDbLine
 10
-36.000
 20
0.000
 30
0.0
 11
-26.000
 21
0.000
 31
0.0
  0
LINE
  5
2A5
100
AcDbEntity
  8
0
100
AcDbLine
 10
-36.000
 20
6.000
 30
0.0
 11
-30.000
 21
6.000
 31
0.0
  0
LINE
  5
2A6
100
AcDbEntity
  8
0
100
AcDbLine
 10
-36.000
 20
-6.000
 30
0.0
 11
-30.000
 21
-6.000
 31
0.0
  0
LINE
  5
2A7
100
AcDbEntity
  8
0
100
AcDbLine
 10
-36.000
 20
6.000
 30
0.0
 11
-36.000
 21
-6.000
 31
0.0
  0
LINE
  5
2A8
100
AcDbEntity
  8
0
100
AcDbLine
 10
0.000
 20
-20.000
 30
0.0
 11
0.000
 21
-40.000
 31
0.0
  0
LINE
  5
2A9
100
AcDbEntity
  8
0
100
AcDbLine
 10
-18.000
 20
0.000
 30
0.0
 11
-9.000
 21
0.000
 31
0.0
  0
LINE
  5
2AA
100
AcDbEntity
  8
0
100
AcDbLine
 10
0.000
 20
20.000
 30
0.0
 11
0.000
 21
40.000
 31
0.0
  0
ENDBLK
  5
25A
100
AcDbEntity
  8
0
100
AcDbBlockEnd
  0
BLOCK
  5
25B
100
AcDbEntity
  8
0
100
AcDbBlockBegin
  2
custom_msbxksjn_0vz
 70
0
 10
0.0
 20
0.0
 30
0.0
  3
custom_msbxksjn_0vz
  1

  0
LINE
  5
2AB
100
AcDbEntity
  8
0
100
AcDbLine
 10
0.000
 20
-20.000
 30
0.0
 11
0.000
 21
-40.000
 31
0.0
  0
LINE
  5
2AC
100
AcDbEntity
  8
0
100
AcDbLine
 10
0.000
 20
40.000
 30
0.0
 11
0.000
 21
20.000
 31
0.0
  0
LINE
  5
2AD
100
AcDbEntity
  8
0
100
AcDbLine
 10
0.000
 20
20.000
 30
0.0
 11
20.000
 21
20.000
 31
0.0
  0
LINE
  5
2AE
100
AcDbEntity
  8
0
100
AcDbLine
 10
0.000
 20
-20.000
 30
0.0
 11
16.000
 21
24.000
 31
0.0
  0
LINE
  5
2AF
100
AcDbEntity
  8
0
100
AcDbLine
 10
-24.000
 20
6.000
 30
0.0
 11
-24.000
 21
-6.000
 31
0.0
  0
LINE
  5
2B0
100
AcDbEntity
  8
0
100
AcDbLine
 10
-24.000
 20
-6.000
 30
0.0
 11
-18.000
 21
-6.000
 31
0.0
  0
LINE
  5
2B1
100
AcDbEntity
  8
0
100
AcDbLine
 10
-24.000
 20
0.000
 30
0.0
 11
-12.000
 21
0.000
 31
0.0
  0
LINE
  5
2B2
100
AcDbEntity
  8
0
100
AcDbLine
 10
-24.000
 20
6.000
 30
0.0
 11
-18.000
 21
6.000
 31
0.0
  0
LINE
  5
2B3
100
AcDbEntity
  8
0
100
AcDbLine
 10
-4.000
 20
0.000
 30
0.0
 11
7.000
 21
0.000
 31
0.0
  0
ENDBLK
  5
25C
100
AcDbEntity
  8
0
100
AcDbBlockEnd
  0
BLOCK
  5
25D
100
AcDbEntity
  8
0
100
AcDbBlockBegin
  2
custom_msbxnsrr_9fd
 70
0
 10
0.0
 20
0.0
 30
0.0
  3
custom_msbxnsrr_9fd
  1

  0
LINE
  5
2B4
100
AcDbEntity
  8
0
100
AcDbLine
 10
-48.000
 20
23.000
 30
0.0
 11
48.000
 21
23.000
 31
0.0
  0
LINE
  5
2B5
100
AcDbEntity
  8
0
100
AcDbLine
 10
48.000
 20
-25.000
 30
0.0
 11
-48.000
 21
-25.000
 31
0.0
  0
LINE
  5
2B6
100
AcDbEntity
  8
0
100
AcDbLine
 10
-48.000
 20
-25.000
 30
0.0
 11
-48.000
 21
23.000
 31
0.0
  0
LINE
  5
2B7
100
AcDbEntity
  8
0
100
AcDbLine
 10
48.000
 20
23.000
 30
0.0
 11
48.000
 21
-25.000
 31
0.0
  0
LINE
  5
2B8
100
AcDbEntity
  8
0
100
AcDbLine
 10
0.000
 20
-25.000
 30
0.0
 11
0.000
 21
-41.000
 31
0.0
  0
LINE
  5
2B9
100
AcDbEntity
  8
0
100
AcDbLine
 10
0.000
 20
39.000
 30
0.0
 11
0.000
 21
23.000
 31
0.0
  0
ENDBLK
  5
25E
100
AcDbEntity
  8
0
100
AcDbBlockEnd
  0
BLOCK
  5
25F
100
AcDbEntity
  8
0
100
AcDbBlockBegin
  2
custom_msc00gdv_sy4
 70
0
 10
0.0
 20
0.0
 30
0.0
  3
custom_msc00gdv_sy4
  1

  0
CIRCLE
  5
2BA
100
AcDbEntity
  8
0
100
AcDbCircle
 10
0.000
 20
20.000
 30
0.0
 40
6.000
  0
LINE
  5
2BB
100
AcDbEntity
  8
0
100
AcDbLine
 10
0.000
 20
-20.000
 30
0.0
 11
8.000
 21
25.000
 31
0.0
  0
LINE
  5
2BC
100
AcDbEntity
  8
0
100
AcDbLine
 10
0.000
 20
-20.000
 30
0.0
 11
0.000
 21
-40.000
 31
0.0
  0
LINE
  5
2BD
100
AcDbEntity
  8
0
100
AcDbLine
 10
0.000
 20
26.000
 30
0.0
 11
0.000
 21
40.000
 31
0.0
  0
ENDBLK
  5
260
100
AcDbEntity
  8
0
100
AcDbBlockEnd
  0
BLOCK
  5
261
100
AcDbEntity
  8
0
100
AcDbBlockBegin
  2
custom_msc0tnf8_xh3
 70
0
 10
0.0
 20
0.0
 30
0.0
  3
custom_msc0tnf8_xh3
  1

  0
CIRCLE
  5
2BE
100
AcDbEntity
  8
0
100
AcDbCircle
 10
0.000
 20
0.000
 30
0.0
 40
20.000
  0
LINE
  5
2BF
100
AcDbEntity
  8
0
100
AcDbLine
 10
-14.000
 20
14.000
 30
0.0
 11
14.000
 21
-14.000
 31
0.0
  0
LINE
  5
2C0
100
AcDbEntity
  8
0
100
AcDbLine
 10
14.000
 20
14.000
 30
0.0
 11
-14.000
 21
-14.000
 31
0.0
  0
LINE
  5
2C1
100
AcDbEntity
  8
0
100
AcDbLine
 10
0.000
 20
-30.000
 30
0.0
 11
0.000
 21
-20.000
 31
0.0
  0
LINE
  5
2C2
100
AcDbEntity
  8
0
100
AcDbLine
 10
0.000
 20
20.000
 30
0.0
 11
0.000
 21
30.000
 31
0.0
  0
ENDBLK
  5
262
100
AcDbEntity
  8
0
100
AcDbBlockEnd
  0
BLOCK
  5
263
100
AcDbEntity
  8
0
100
AcDbBlockBegin
  2
custom_msc1f3od_brf
 70
0
 10
0.0
 20
0.0
 30
0.0
  3
custom_msc1f3od_brf
  1

  0
CIRCLE
  5
2C3
100
AcDbEntity
  8
0
100
AcDbCircle
 10
0.000
 20
20.000
 30
0.0
 40
6.000
  0
LINE
  5
2C4
100
AcDbEntity
  8
0
100
AcDbLine
 10
0.000
 20
-20.000
 30
0.0
 11
-20.000
 21
24.000
 31
0.0
  0
LINE
  5
2C5
100
AcDbEntity
  8
0
100
AcDbLine
 10
0.000
 20
-20.000
 30
0.0
 11
0.000
 21
-40.000
 31
0.0
  0
LINE
  5
2C6
100
AcDbEntity
  8
0
100
AcDbLine
 10
0.000
 20
26.000
 30
0.0
 11
0.000
 21
40.000
 31
0.0
  0
ENDBLK
  5
264
100
AcDbEntity
  8
0
100
AcDbBlockEnd
  0
BLOCK
  5
265
100
AcDbEntity
  8
0
100
AcDbBlockBegin
  2
lib_JIS_C_0617______RY-A_S1V
 70
0
 10
0.0
 20
0.0
 30
0.0
  3
lib_JIS_C_0617______RY-A_S1V
  1

  0
LINE
  5
2C7
100
AcDbEntity
  8
0
100
AcDbLine
 10
10.000
 20
-20.000
 30
0.0
 11
-10.000
 21
24.000
 31
0.0
  0
LINE
  5
2C8
100
AcDbEntity
  8
0
100
AcDbLine
 10
10.000
 20
-20.000
 30
0.0
 11
10.000
 21
-40.000
 31
0.0
  0
LINE
  5
2C9
100
AcDbEntity
  8
0
100
AcDbLine
 10
10.000
 20
20.000
 30
0.0
 11
10.000
 21
40.000
 31
0.0
  0
ENDBLK
  5
266
100
AcDbEntity
  8
0
100
AcDbBlockEnd
  0
BLOCK
  5
267
100
AcDbEntity
  8
0
100
AcDbBlockBegin
  2
lib_JIS_C_0617______MC-3P_F1V
 70
0
 10
0.0
 20
0.0
 30
0.0
  3
lib_JIS_C_0617______MC-3P_F1V
  1

  0
ARC
  5
2CA
100
AcDbEntity
  8
0
100
AcDbCircle
 10
-32.000
 20
20.000
 30
0.0
 40
8.000
100
AcDbArc
 50
90.000
 51
270.000
  0
ARC
  5
2CB
100
AcDbEntity
  8
0
100
AcDbCircle
 10
8.000
 20
20.000
 30
0.0
 40
8.000
100
AcDbArc
 50
90.000
 51
270.000
  0
ARC
  5
2CC
100
AcDbEntity
  8
0
100
AcDbCircle
 10
48.000
 20
20.000
 30
0.0
 40
8.000
100
AcDbArc
 50
90.000
 51
270.000
  0
LINE
  5
2CD
100
AcDbEntity
  8
0
100
AcDbLine
 10
-16.000
 20
20.000
 30
0.0
 11
8.000
 21
-28.000
 31
0.0
  0
LINE
  5
2CE
100
AcDbEntity
  8
0
100
AcDbLine
 10
24.000
 20
20.000
 30
0.0
 11
48.000
 21
-28.000
 31
0.0
  0
LINE
  5
2CF
100
AcDbEntity
  8
0
100
AcDbLine
 10
-56.000
 20
20.000
 30
0.0
 11
-32.000
 21
-28.000
 31
0.0
  0
LINE
  5
2D0
100
AcDbEntity
  8
0
100
AcDbLine
 10
-32.000
 20
12.000
 30
0.0
 11
-32.000
 21
40.000
 31
0.0
  0
LINE
  5
2D1
100
AcDbEntity
  8
0
100
AcDbLine
 10
-30.000
 20
-4.000
 30
0.0
 11
-44.000
 21
-4.000
 31
0.0
  0
LINE
  5
2D2
100
AcDbEntity
  8
0
100
AcDbLine
 10
14.000
 20
-4.000
 30
0.0
 11
0.000
 21
-4.000
 31
0.0
  0
LINE
  5
2D3
100
AcDbEntity
  8
0
100
AcDbLine
 10
8.000
 20
12.000
 30
0.0
 11
8.000
 21
40.000
 31
0.0
  0
LINE
  5
2D4
100
AcDbEntity
  8
0
100
AcDbLine
 10
-8.000
 20
-4.000
 30
0.0
 11
-22.000
 21
-4.000
 31
0.0
  0
LINE
  5
2D5
100
AcDbEntity
  8
0
100
AcDbLine
 10
48.000
 20
12.000
 30
0.0
 11
48.000
 21
40.000
 31
0.0
  0
LINE
  5
2D6
100
AcDbEntity
  8
0
100
AcDbLine
 10
22.000
 20
-4.000
 30
0.0
 11
36.000
 21
-4.000
 31
0.0
  0
LINE
  5
2D7
100
AcDbEntity
  8
0
100
AcDbLine
 10
-32.000
 20
-28.000
 30
0.0
 11
-32.000
 21
-40.000
 31
0.0
  0
LINE
  5
2D8
100
AcDbEntity
  8
0
100
AcDbLine
 10
8.000
 20
-28.000
 30
0.0
 11
8.000
 21
-40.000
 31
0.0
  0
LINE
  5
2D9
100
AcDbEntity
  8
0
100
AcDbLine
 10
48.000
 20
-28.000
 30
0.0
 11
48.000
 21
-40.000
 31
0.0
  0
ENDBLK
  5
268
100
AcDbEntity
  8
0
100
AcDbBlockEnd
  0
BLOCK
  5
269
100
AcDbEntity
  8
0
100
AcDbBlockBegin
  2
lib_JIS_C_0617______MCCB_T1V
 70
0
 10
0.0
 20
0.0
 30
0.0
  3
lib_JIS_C_0617______MCCB_T1V
  1

  0
LINE
  5
2DA
100
AcDbEntity
  8
0
100
AcDbLine
 10
8.000
 20
-20.000
 30
0.0
 11
-14.000
 21
22.000
 31
0.0
  0
LINE
  5
2DB
100
AcDbEntity
  8
0
100
AcDbLine
 10
8.000
 20
-20.000
 30
0.0
 11
8.000
 21
-40.000
 31
0.0
  0
LINE
  5
2DC
100
AcDbEntity
  8
0
100
AcDbLine
 10
2.000
 20
26.000
 30
0.0
 11
14.000
 21
14.000
 31
0.0
  0
LINE
  5
2DD
100
AcDbEntity
  8
0
100
AcDbLine
 10
14.000
 20
26.000
 30
0.0
 11
2.000
 21
14.000
 31
0.0
  0
LINE
  5
2DE
100
AcDbEntity
  8
0
100
AcDbLine
 10
8.000
 20
40.000
 30
0.0
 11
8.000
 21
20.000
 31
0.0
  0
ENDBLK
  5
26A
100
AcDbEntity
  8
0
100
AcDbBlockEnd
  0
BLOCK
  5
26B
100
AcDbEntity
  8
0
100
AcDbBlockBegin
  2
custom_msa5suje_ot5
 70
0
 10
0.0
 20
0.0
 30
0.0
  3
custom_msa5suje_ot5
  1

  0
ARC
  5
2DF
100
AcDbEntity
  8
0
100
AcDbCircle
 10
0.000
 20
7.000
 30
0.0
 40
3.000
100
AcDbArc
 50
90.000
 51
270.000
  0
LINE
  5
2E0
100
AcDbEntity
  8
0
100
AcDbLine
 10
-9.000
 20
7.000
 30
0.0
 11
0.000
 21
-10.000
 31
0.0
  0
LINE
  5
2E1
100
AcDbEntity
  8
0
100
AcDbLine
 10
0.000
 20
4.000
 30
0.0
 11
0.000
 21
14.000
 31
0.0
  0
LINE
  5
2E2
100
AcDbEntity
  8
0
100
AcDbLine
 10
0.000
 20
-10.000
 30
0.0
 11
0.000
 21
-14.000
 31
0.0
  0
ENDBLK
  5
26C
100
AcDbEntity
  8
0
100
AcDbBlockEnd
  0
BLOCK
  5
26D
100
AcDbEntity
  8
0
100
AcDbBlockBegin
  2
custom_msctfsfu_t61
 70
0
 10
0.0
 20
0.0
 30
0.0
  3
custom_msctfsfu_t61
  1

  0
CIRCLE
  5
2E3
100
AcDbEntity
  8
0
100
AcDbCircle
 10
0.000
 20
-20.000
 30
0.0
 40
14.000
  0
LINE
  5
2E4
100
AcDbEntity
  8
0
100
AcDbLine
 10
-10.000
 20
-10.000
 30
0.0
 11
-30.000
 21
0.000
 31
0.0
  0
LINE
  5
2E5
100
AcDbEntity
  8
0
100
AcDbLine
 10
-30.000
 20
0.000
 30
0.0
 11
-30.000
 21
0.000
 31
0.0
  0
LINE
  5
2E6
100
AcDbEntity
  8
0
100
AcDbLine
 10
-30.000
 20
0.000
 30
0.0
 11
-30.000
 21
30.000
 31
0.0
  0
LINE
  5
2E7
100
AcDbEntity
  8
0
100
AcDbLine
 10
0.000
 20
-6.000
 30
0.0
 11
0.000
 21
30.000
 31
0.0
  0
LINE
  5
2E8
100
AcDbEntity
  8
0
100
AcDbLine
 10
10.000
 20
-10.000
 30
0.0
 11
30.000
 21
0.000
 31
0.0
  0
LINE
  5
2E9
100
AcDbEntity
  8
0
100
AcDbLine
 10
30.000
 20
0.000
 30
0.0
 11
30.000
 21
0.000
 31
0.0
  0
LINE
  5
2EA
100
AcDbEntity
  8
0
100
AcDbLine
 10
30.000
 20
0.000
 30
0.0
 11
30.000
 21
30.000
 31
0.0
  0
LINE
  5
2EB
100
AcDbEntity
  8
0
100
AcDbLine
 10
-14.000
 20
-20.000
 30
0.0
 11
-60.000
 21
-20.000
 31
0.0
  0
LINE
  5
2EC
100
AcDbEntity
  8
0
100
AcDbLine
 10
-60.000
 20
-20.000
 30
0.0
 11
-60.000
 21
30.000
 31
0.0
  0
ENDBLK
  5
26E
100
AcDbEntity
  8
0
100
AcDbBlockEnd
  0
BLOCK
  5
26F
100
AcDbEntity
  8
0
100
AcDbBlockBegin
  2
lib_JIS_C_0617______LS-B_S1V
 70
0
 10
0.0
 20
0.0
 30
0.0
  3
lib_JIS_C_0617______LS-B_S1V
  1

  0
LINE
  5
2ED
100
AcDbEntity
  8
0
100
AcDbLine
 10
-10.000
 20
20.000
 30
0.0
 11
10.000
 21
20.000
 31
0.0
  0
LINE
  5
2EE
100
AcDbEntity
  8
0
100
AcDbLine
 10
-10.000
 20
-20.000
 30
0.0
 11
6.000
 21
24.000
 31
0.0
  0
LINE
  5
2EF
100
AcDbEntity
  8
0
100
AcDbLine
 10
-10.000
 20
-20.000
 30
0.0
 11
-10.000
 21
-40.000
 31
0.0
  0
LINE
  5
2F0
100
AcDbEntity
  8
0
100
AcDbLine
 10
-10.000
 20
40.000
 30
0.0
 11
-10.000
 21
20.000
 31
0.0
  0
LINE
  5
2F1
100
AcDbEntity
  8
0
100
AcDbLine
 10
-7.626
 20
-12.919
 30
0.0
 11
-7.923
 21
11.172
 31
0.0
  0
LINE
  5
2F2
100
AcDbEntity
  8
0
100
AcDbLine
 10
-7.923
 20
11.172
 30
0.0
 11
0.094
 21
8.713
 31
0.0
  0
ENDBLK
  5
270
100
AcDbEntity
  8
0
100
AcDbBlockEnd
  0
BLOCK
  5
271
100
AcDbEntity
  8
0
100
AcDbBlockBegin
  2
custom_msekru4r_trn
 70
0
 10
0.0
 20
0.0
 30
0.0
  3
custom_msekru4r_trn
  1

  0
LINE
  5
2F3
100
AcDbEntity
  8
0
100
AcDbLine
 10
0.000
 20
20.000
 30
0.0
 11
20.000
 21
20.000
 31
0.0
  0
LINE
  5
2F4
100
AcDbEntity
  8
0
100
AcDbLine
 10
0.000
 20
-20.000
 30
0.0
 11
16.000
 21
24.000
 31
0.0
  0
LINE
  5
2F5
100
AcDbEntity
  8
0
100
AcDbLine
 10
0.000
 20
-20.000
 30
0.0
 11
0.000
 21
-40.000
 31
0.0
  0
LINE
  5
2F6
100
AcDbEntity
  8
0
100
AcDbLine
 10
0.000
 20
40.000
 30
0.0
 11
0.000
 21
20.000
 31
0.0
  0
LINE
  5
2F7
100
AcDbEntity
  8
0
100
AcDbLine
 10
2.000
 20
-13.000
 30
0.0
 11
2.000
 21
11.000
 31
0.0
  0
LINE
  5
2F8
100
AcDbEntity
  8
0
100
AcDbLine
 10
2.000
 20
11.000
 30
0.0
 11
10.000
 21
9.000
 31
0.0
  0
ENDBLK
  5
272
100
AcDbEntity
  8
0
100
AcDbBlockEnd
  0
BLOCK
  5
273
100
AcDbEntity
  8
0
100
AcDbBlockBegin
  2
lib_JIS_C_0617______PBS-B_S1H
 70
0
 10
0.0
 20
0.0
 30
0.0
  3
lib_JIS_C_0617______PBS-B_S1H
  1

  0
LINE
  5
2F9
100
AcDbEntity
  8
0
100
AcDbLine
 10
-6.000
 20
-22.000
 30
0.0
 11
6.000
 21
-22.000
 31
0.0
  0
LINE
  5
2FA
100
AcDbEntity
  8
0
100
AcDbLine
 10
20.000
 20
2.000
 30
0.0
 11
-24.000
 21
18.000
 31
0.0
  0
LINE
  5
2FB
100
AcDbEntity
  8
0
100
AcDbLine
 10
-6.000
 20
-22.000
 30
0.0
 11
-6.000
 21
-16.000
 31
0.0
  0
LINE
  5
2FC
100
AcDbEntity
  8
0
100
AcDbLine
 10
-40.000
 20
2.000
 30
0.0
 11
-20.000
 21
2.000
 31
0.0
  0
LINE
  5
2FD
100
AcDbEntity
  8
0
100
AcDbLine
 10
-20.000
 20
2.000
 30
0.0
 11
-20.000
 21
22.000
 31
0.0
  0
LINE
  5
2FE
100
AcDbEntity
  8
0
100
AcDbLine
 10
20.000
 20
2.000
 30
0.0
 11
40.000
 21
2.000
 31
0.0
  0
LINE
  5
2FF
100
AcDbEntity
  8
0
100
AcDbLine
 10
-0.000
 20
-22.000
 30
0.0
 11
-0.000
 21
-10.000
 31
0.0
  0
LINE
  5
300
100
AcDbEntity
  8
0
100
AcDbLine
 10
6.000
 20
-22.000
 30
0.0
 11
6.000
 21
-16.000
 31
0.0
  0
LINE
  5
301
100
AcDbEntity
  8
0
100
AcDbLine
 10
-0.000
 20
-2.000
 30
0.0
 11
-0.000
 21
9.161
 31
0.0
  0
ENDBLK
  5
274
100
AcDbEntity
  8
0
100
AcDbBlockEnd
  0
BLOCK
  5
275
100
AcDbEntity
  8
0
100
AcDbBlockBegin
  2
custom_msemh9hr_ahw
 70
0
 10
0.0
 20
0.0
 30
0.0
  3
custom_msemh9hr_ahw
  1

  0
LINE
  5
302
100
AcDbEntity
  8
0
100
AcDbLine
 10
-6.000
 20
-24.000
 30
0.0
 11
6.000
 21
-24.000
 31
0.0
  0
LINE
  5
303
100
AcDbEntity
  8
0
100
AcDbLine
 10
20.000
 20
0.000
 30
0.0
 11
-24.000
 21
16.000
 31
0.0
  0
LINE
  5
304
100
AcDbEntity
  8
0
100
AcDbLine
 10
-6.000
 20
-24.000
 30
0.0
 11
-6.000
 21
-18.000
 31
0.0
  0
LINE
  5
305
100
AcDbEntity
  8
0
100
AcDbLine
 10
-40.000
 20
0.000
 30
0.0
 11
-20.000
 21
0.000
 31
0.0
  0
LINE
  5
306
100
AcDbEntity
  8
0
100
AcDbLine
 10
-20.000
 20
0.000
 30
0.0
 11
-20.000
 21
20.000
 31
0.0
  0
LINE
  5
307
100
AcDbEntity
  8
0
100
AcDbLine
 10
20.000
 20
0.000
 30
0.0
 11
40.000
 21
0.000
 31
0.0
  0
LINE
  5
308
100
AcDbEntity
  8
0
100
AcDbLine
 10
0.000
 20
-24.000
 30
0.0
 11
0.000
 21
-12.000
 31
0.0
  0
LINE
  5
309
100
AcDbEntity
  8
0
100
AcDbLine
 10
6.000
 20
-24.000
 30
0.0
 11
6.000
 21
-18.000
 31
0.0
  0
LINE
  5
30A
100
AcDbEntity
  8
0
100
AcDbLine
 10
0.000
 20
-4.000
 30
0.0
 11
0.000
 21
7.000
 31
0.0
  0
ENDBLK
  5
276
100
AcDbEntity
  8
0
100
AcDbBlockEnd
  0
BLOCK
  5
277
100
AcDbEntity
  8
0
100
AcDbBlockBegin
  2
custom_mt57jxh7_ei3
 70
0
 10
0.0
 20
0.0
 30
0.0
  3
custom_mt57jxh7_ei3
  1

  0
LINE
  5
30B
100
AcDbEntity
  8
0
  6
DOT
100
AcDbLine
 10
-33.000
 20
11.000
 30
0.0
 11
40.000
 21
11.000
 31
0.0
  0
LINE
  5
30C
100
AcDbEntity
  8
0
100
AcDbLine
 10
30.000
 20
0.000
 30
0.0
 11
-30.000
 21
0.000
 31
0.0
  0
LINE
  5
30D
100
AcDbEntity
  8
0
100
AcDbLine
 10
30.000
 20
-10.000
 30
0.0
 11
-30.000
 21
-10.000
 31
0.0
  0
LINE
  5
30E
100
AcDbEntity
  8
0
100
AcDbLine
 10
30.000
 20
-20.000
 30
0.0
 11
-30.000
 21
-20.000
 31
0.0
  0
ARC
  5
30F
100
AcDbEntity
  8
0
100
AcDbCircle
 10
-30.000
 20
-5.000
 30
0.0
 40
5.000
100
AcDbArc
 50
90.000
 51
270.000
  0
ARC
  5
310
100
AcDbEntity
  8
0
100
AcDbCircle
 10
-30.000
 20
-15.000
 30
0.0
 40
5.000
100
AcDbArc
 50
90.000
 51
270.000
  0
LINE
  5
311
100
AcDbEntity
  8
0
  6
DOT
100
AcDbLine
 10
30.000
 20
-10.000
 30
0.0
 11
40.000
 21
-10.000
 31
0.0
  0
LINE
  5
312
100
AcDbEntity
  8
0
  6
DOT
100
AcDbLine
 10
40.000
 20
-10.000
 30
0.0
 11
40.000
 21
11.000
 31
0.0
  0
LINE
  5
313
100
AcDbEntity
  8
0
100
AcDbLine
 10
-30.000
 20
3.286
 30
0.0
 11
-38.545
 21
20.377
 31
0.0
  0
LINE
  5
314
100
AcDbEntity
  8
0
100
AcDbLine
 10
-30.000
 20
3.286
 30
0.0
 11
-30.000
 21
-30.000
 31
0.0
  0
LINE
  5
315
100
AcDbEntity
  8
0
100
AcDbLine
 10
-32.442
 20
22.208
 30
0.0
 11
-27.558
 21
16.714
 31
0.0
  0
LINE
  5
316
100
AcDbEntity
  8
0
100
AcDbLine
 10
-27.558
 20
22.208
 30
0.0
 11
-32.442
 21
16.714
 31
0.0
  0
LINE
  5
317
100
AcDbEntity
  8
0
100
AcDbLine
 10
-30.000
 20
27.701
 30
0.0
 11
-30.000
 21
19.156
 31
0.0
  0
LINE
  5
318
100
AcDbEntity
  8
0
100
AcDbLine
 10
0.000
 20
3.286
 30
0.0
 11
-8.545
 21
20.377
 31
0.0
  0
LINE
  5
319
100
AcDbEntity
  8
0
100
AcDbLine
 10
0.000
 20
3.286
 30
0.0
 11
0.000
 21
-30.000
 31
0.0
  0
LINE
  5
31A
100
AcDbEntity
  8
0
100
AcDbLine
 10
-2.442
 20
22.208
 30
0.0
 11
2.442
 21
16.714
 31
0.0
  0
LINE
  5
31B
100
AcDbEntity
  8
0
100
AcDbLine
 10
2.442
 20
22.208
 30
0.0
 11
-2.442
 21
16.714
 31
0.0
  0
LINE
  5
31C
100
AcDbEntity
  8
0
100
AcDbLine
 10
0.000
 20
27.701
 30
0.0
 11
0.000
 21
19.156
 31
0.0
  0
LINE
  5
31D
100
AcDbEntity
  8
0
100
AcDbLine
 10
30.000
 20
3.286
 30
0.0
 11
21.455
 21
20.377
 31
0.0
  0
LINE
  5
31E
100
AcDbEntity
  8
0
100
AcDbLine
 10
30.000
 20
3.286
 30
0.0
 11
30.000
 21
-30.000
 31
0.0
  0
LINE
  5
31F
100
AcDbEntity
  8
0
100
AcDbLine
 10
27.558
 20
22.208
 30
0.0
 11
32.442
 21
16.714
 31
0.0
  0
LINE
  5
320
100
AcDbEntity
  8
0
100
AcDbLine
 10
32.442
 20
22.208
 30
0.0
 11
27.558
 21
16.714
 31
0.0
  0
LINE
  5
321
100
AcDbEntity
  8
0
100
AcDbLine
 10
30.000
 20
27.701
 30
0.0
 11
30.000
 21
19.156
 31
0.0
  0
ENDBLK
  5
278
100
AcDbEntity
  8
0
100
AcDbBlockEnd
  0
BLOCK
  5
279
100
AcDbEntity
  8
0
100
AcDbBlockBegin
  2
custom_mt57stff_0vh
 70
0
 10
0.0
 20
0.0
 30
0.0
  3
custom_mt57stff_0vh
  1

  0
LINE
  5
322
100
AcDbEntity
  8
0
100
AcDbLine
 10
20.000
 20
-8.714
 30
0.0
 11
11.455
 21
8.377
 31
0.0
  0
LINE
  5
323
100
AcDbEntity
  8
0
100
AcDbLine
 10
20.000
 20
-8.714
 30
0.0
 11
20.000
 21
-17.260
 31
0.0
  0
LINE
  5
324
100
AcDbEntity
  8
0
100
AcDbLine
 10
17.558
 20
10.208
 30
0.0
 11
22.442
 21
4.714
 31
0.0
  0
LINE
  5
325
100
AcDbEntity
  8
0
100
AcDbLine
 10
22.442
 20
10.208
 30
0.0
 11
17.558
 21
4.714
 31
0.0
  0
LINE
  5
326
100
AcDbEntity
  8
0
100
AcDbLine
 10
20.000
 20
15.701
 30
0.0
 11
20.000
 21
7.156
 31
0.0
  0
LINE
  5
327
100
AcDbEntity
  8
0
100
AcDbLine
 10
-10.000
 20
-8.714
 30
0.0
 11
-18.545
 21
8.377
 31
0.0
  0
LINE
  5
328
100
AcDbEntity
  8
0
100
AcDbLine
 10
-10.000
 20
-8.714
 30
0.0
 11
-10.000
 21
-17.260
 31
0.0
  0
LINE
  5
329
100
AcDbEntity
  8
0
100
AcDbLine
 10
-12.442
 20
10.208
 30
0.0
 11
-7.558
 21
4.714
 31
0.0
  0
LINE
  5
32A
100
AcDbEntity
  8
0
100
AcDbLine
 10
-7.558
 20
10.208
 30
0.0
 11
-12.442
 21
4.714
 31
0.0
  0
LINE
  5
32B
100
AcDbEntity
  8
0
100
AcDbLine
 10
-10.000
 20
15.701
 30
0.0
 11
-10.000
 21
7.156
 31
0.0
  0
LINE
  5
32C
100
AcDbEntity
  8
0
  6
DOT
100
AcDbLine
 10
-14.000
 20
0.000
 30
0.0
 11
15.000
 21
0.000
 31
0.0
  0
ENDBLK
  5
27A
100
AcDbEntity
  8
0
100
AcDbBlockEnd
  0
BLOCK
  5
27B
100
AcDbEntity
  8
0
100
AcDbBlockBegin
  2
custom_mt6pr5m0_e2z
 70
0
 10
0.0
 20
0.0
 30
0.0
  3
custom_mt6pr5m0_e2z
  1

  0
LINE
  5
32D
100
AcDbEntity
  8
0
  6
DOT
100
AcDbLine
 10
-34.000
 20
0.000
 30
0.0
 11
25.000
 21
0.000
 31
0.0
  0
ARC
  5
32E
100
AcDbEntity
  8
0
100
AcDbCircle
 10
-30.000
 20
8.000
 30
0.0
 40
3.000
100
AcDbArc
 50
90.000
 51
270.000
  0
LINE
  5
32F
100
AcDbEntity
  8
0
100
AcDbLine
 10
-39.000
 20
8.000
 30
0.0
 11
-30.000
 21
-9.000
 31
0.0
  0
LINE
  5
330
100
AcDbEntity
  8
0
100
AcDbLine
 10
-30.000
 20
5.000
 30
0.0
 11
-30.000
 21
15.000
 31
0.0
  0
LINE
  5
331
100
AcDbEntity
  8
0
100
AcDbLine
 10
-30.000
 20
-9.000
 30
0.0
 11
-30.000
 21
-13.000
 31
0.0
  0
ARC
  5
332
100
AcDbEntity
  8
0
100
AcDbCircle
 10
0.000
 20
8.000
 30
0.0
 40
3.000
100
AcDbArc
 50
90.000
 51
270.000
  0
LINE
  5
333
100
AcDbEntity
  8
0
100
AcDbLine
 10
-9.000
 20
8.000
 30
0.0
 11
0.000
 21
-9.000
 31
0.0
  0
LINE
  5
334
100
AcDbEntity
  8
0
100
AcDbLine
 10
0.000
 20
5.000
 30
0.0
 11
0.000
 21
15.000
 31
0.0
  0
LINE
  5
335
100
AcDbEntity
  8
0
100
AcDbLine
 10
0.000
 20
-9.000
 30
0.0
 11
0.000
 21
-13.000
 31
0.0
  0
ARC
  5
336
100
AcDbEntity
  8
0
100
AcDbCircle
 10
30.000
 20
8.000
 30
0.0
 40
3.000
100
AcDbArc
 50
90.000
 51
270.000
  0
LINE
  5
337
100
AcDbEntity
  8
0
100
AcDbLine
 10
21.000
 20
8.000
 30
0.0
 11
30.000
 21
-9.000
 31
0.0
  0
LINE
  5
338
100
AcDbEntity
  8
0
100
AcDbLine
 10
30.000
 20
5.000
 30
0.0
 11
30.000
 21
15.000
 31
0.0
  0
LINE
  5
339
100
AcDbEntity
  8
0
100
AcDbLine
 10
30.000
 20
-9.000
 30
0.0
 11
30.000
 21
-13.000
 31
0.0
  0
ENDBLK
  5
27C
100
AcDbEntity
  8
0
100
AcDbBlockEnd
  0
BLOCK
  5
27D
100
AcDbEntity
  8
0
100
AcDbBlockBegin
  2
custom_mt6q6rw0_dez
 70
0
 10
0.0
 20
0.0
 30
0.0
  3
custom_mt6q6rw0_dez
  1

  0
LINE
  5
33A
100
AcDbEntity
  8
0
100
AcDbLine
 10
-25.000
 20
-7.714
 30
0.0
 11
-33.545
 21
9.377
 31
0.0
  0
LINE
  5
33B
100
AcDbEntity
  8
0
100
AcDbLine
 10
-25.000
 20
-7.714
 30
0.0
 11
-25.000
 21
-16.260
 31
0.0
  0
LINE
  5
33C
100
AcDbEntity
  8
0
100
AcDbLine
 10
-27.442
 20
11.208
 30
0.0
 11
-22.558
 21
5.714
 31
0.0
  0
LINE
  5
33D
100
AcDbEntity
  8
0
100
AcDbLine
 10
-22.558
 20
11.208
 30
0.0
 11
-27.442
 21
5.714
 31
0.0
  0
LINE
  5
33E
100
AcDbEntity
  8
0
100
AcDbLine
 10
-25.000
 20
16.701
 30
0.0
 11
-25.000
 21
8.156
 31
0.0
  0
LINE
  5
33F
100
AcDbEntity
  8
0
100
AcDbLine
 10
5.000
 20
-7.714
 30
0.0
 11
-3.545
 21
9.377
 31
0.0
  0
LINE
  5
340
100
AcDbEntity
  8
0
100
AcDbLine
 10
5.000
 20
-7.714
 30
0.0
 11
5.000
 21
-16.260
 31
0.0
  0
LINE
  5
341
100
AcDbEntity
  8
0
100
AcDbLine
 10
2.558
 20
11.208
 30
0.0
 11
7.442
 21
5.714
 31
0.0
  0
LINE
  5
342
100
AcDbEntity
  8
0
100
AcDbLine
 10
7.442
 20
11.208
 30
0.0
 11
2.558
 21
5.714
 31
0.0
  0
LINE
  5
343
100
AcDbEntity
  8
0
100
AcDbLine
 10
5.000
 20
16.701
 30
0.0
 11
5.000
 21
8.156
 31
0.0
  0
LINE
  5
344
100
AcDbEntity
  8
0
100
AcDbLine
 10
35.000
 20
-7.714
 30
0.0
 11
26.455
 21
9.377
 31
0.0
  0
LINE
  5
345
100
AcDbEntity
  8
0
100
AcDbLine
 10
35.000
 20
-7.714
 30
0.0
 11
35.000
 21
-16.260
 31
0.0
  0
LINE
  5
346
100
AcDbEntity
  8
0
100
AcDbLine
 10
32.558
 20
11.208
 30
0.0
 11
37.442
 21
5.714
 31
0.0
  0
LINE
  5
347
100
AcDbEntity
  8
0
100
AcDbLine
 10
37.442
 20
11.208
 30
0.0
 11
32.558
 21
5.714
 31
0.0
  0
LINE
  5
348
100
AcDbEntity
  8
0
100
AcDbLine
 10
35.000
 20
16.701
 30
0.0
 11
35.000
 21
8.156
 31
0.0
  0
LINE
  5
349
100
AcDbEntity
  8
0
  6
DOT
100
AcDbLine
 10
-28.000
 20
0.000
 30
0.0
 11
31.000
 21
0.000
 31
0.0
  0
ENDBLK
  5
27E
100
AcDbEntity
  8
0
100
AcDbBlockEnd
  0
BLOCK
  5
27F
100
AcDbEntity
  8
0
100
AcDbBlockBegin
  2
custom_muajd69w_hi7
 70
0
 10
0.0
 20
0.0
 30
0.0
  3
custom_muajd69w_hi7
  1

  0
LINE
  5
34A
100
AcDbEntity
  8
0
100
AcDbLine
 10
-40.000
 20
20.000
 30
0.0
 11
40.000
 21
20.000
 31
0.0
  0
LINE
  5
34B
100
AcDbEntity
  8
0
100
AcDbLine
 10
40.000
 20
20.000
 30
0.0
 11
40.000
 21
-20.000
 31
0.0
  0
LINE
  5
34C
100
AcDbEntity
  8
0
100
AcDbLine
 10
40.000
 20
-20.000
 30
0.0
 11
-40.000
 21
-20.000
 31
0.0
  0
LINE
  5
34D
100
AcDbEntity
  8
0
100
AcDbLine
 10
-40.000
 20
-20.000
 30
0.0
 11
-40.000
 21
20.000
 31
0.0
  0
CIRCLE
  5
34E
100
AcDbEntity
  8
0
100
AcDbCircle
 10
30.000
 20
20.000
 30
0.0
 40
2.000
  0
CIRCLE
  5
34F
100
AcDbEntity
  8
0
100
AcDbCircle
 10
0.000
 20
20.000
 30
0.0
 40
2.000
  0
CIRCLE
  5
350
100
AcDbEntity
  8
0
100
AcDbCircle
 10
-30.000
 20
20.000
 30
0.0
 40
2.000
  0
CIRCLE
  5
351
100
AcDbEntity
  8
0
100
AcDbCircle
 10
30.000
 20
-20.000
 30
0.0
 40
2.000
  0
CIRCLE
  5
352
100
AcDbEntity
  8
0
100
AcDbCircle
 10
0.000
 20
-20.000
 30
0.0
 40
2.000
  0
CIRCLE
  5
353
100
AcDbEntity
  8
0
100
AcDbCircle
 10
-30.000
 20
-20.000
 30
0.0
 40
2.000
  0
CIRCLE
  5
354
100
AcDbEntity
  8
0
100
AcDbCircle
 10
-40.000
 20
0.000
 30
0.0
 40
2.000
  0
ENDBLK
  5
280
100
AcDbEntity
  8
0
100
AcDbBlockEnd
  0
BLOCK
  5
281
100
AcDbEntity
  8
0
100
AcDbBlockBegin
  2
custom_muc0o9zb_dgj
 70
0
 10
0.0
 20
0.0
 30
0.0
  3
custom_muc0o9zb_dgj
  1

  0
LINE
  5
355
100
AcDbEntity
  8
0
  6
DOT
100
AcDbLine
 10
-33.000
 20
11.000
 30
0.0
 11
40.000
 21
11.000
 31
0.0
  0
LINE
  5
356
100
AcDbEntity
  8
0
100
AcDbLine
 10
30.000
 20
0.000
 30
0.0
 11
-30.000
 21
0.000
 31
0.0
  0
LINE
  5
357
100
AcDbEntity
  8
0
100
AcDbLine
 10
30.000
 20
-10.000
 30
0.0
 11
-30.000
 21
-10.000
 31
0.0
  0
LINE
  5
358
100
AcDbEntity
  8
0
100
AcDbLine
 10
30.000
 20
-20.000
 30
0.0
 11
-30.000
 21
-20.000
 31
0.0
  0
ARC
  5
359
100
AcDbEntity
  8
0
100
AcDbCircle
 10
-30.000
 20
-5.000
 30
0.0
 40
5.000
100
AcDbArc
 50
90.000
 51
270.000
  0
ARC
  5
35A
100
AcDbEntity
  8
0
100
AcDbCircle
 10
-30.000
 20
-15.000
 30
0.0
 40
5.000
100
AcDbArc
 50
90.000
 51
270.000
  0
LINE
  5
35B
100
AcDbEntity
  8
0
  6
DOT
100
AcDbLine
 10
30.000
 20
-10.000
 30
0.0
 11
40.000
 21
-10.000
 31
0.0
  0
LINE
  5
35C
100
AcDbEntity
  8
0
  6
DOT
100
AcDbLine
 10
40.000
 20
-10.000
 30
0.0
 11
40.000
 21
11.000
 31
0.0
  0
LINE
  5
35D
100
AcDbEntity
  8
0
100
AcDbLine
 10
-30.000
 20
3.286
 30
0.0
 11
-38.545
 21
20.377
 31
0.0
  0
LINE
  5
35E
100
AcDbEntity
  8
0
100
AcDbLine
 10
-30.000
 20
3.286
 30
0.0
 11
-30.000
 21
-30.000
 31
0.0
  0
LINE
  5
35F
100
AcDbEntity
  8
0
100
AcDbLine
 10
-32.442
 20
22.208
 30
0.0
 11
-27.558
 21
16.714
 31
0.0
  0
LINE
  5
360
100
AcDbEntity
  8
0
100
AcDbLine
 10
-27.558
 20
22.208
 30
0.0
 11
-32.442
 21
16.714
 31
0.0
  0
LINE
  5
361
100
AcDbEntity
  8
0
100
AcDbLine
 10
-30.000
 20
27.701
 30
0.0
 11
-30.000
 21
19.156
 31
0.0
  0
LINE
  5
362
100
AcDbEntity
  8
0
100
AcDbLine
 10
0.000
 20
3.286
 30
0.0
 11
-8.545
 21
20.377
 31
0.0
  0
LINE
  5
363
100
AcDbEntity
  8
0
100
AcDbLine
 10
0.000
 20
3.286
 30
0.0
 11
0.000
 21
-30.000
 31
0.0
  0
LINE
  5
364
100
AcDbEntity
  8
0
100
AcDbLine
 10
-2.442
 20
22.208
 30
0.0
 11
2.442
 21
16.714
 31
0.0
  0
LINE
  5
365
100
AcDbEntity
  8
0
100
AcDbLine
 10
2.442
 20
22.208
 30
0.0
 11
-2.442
 21
16.714
 31
0.0
  0
LINE
  5
366
100
AcDbEntity
  8
0
100
AcDbLine
 10
0.000
 20
27.701
 30
0.0
 11
0.000
 21
19.156
 31
0.0
  0
LINE
  5
367
100
AcDbEntity
  8
0
100
AcDbLine
 10
30.000
 20
3.286
 30
0.0
 11
21.455
 21
20.377
 31
0.0
  0
LINE
  5
368
100
AcDbEntity
  8
0
100
AcDbLine
 10
30.000
 20
3.286
 30
0.0
 11
30.000
 21
-30.000
 31
0.0
  0
LINE
  5
369
100
AcDbEntity
  8
0
100
AcDbLine
 10
27.558
 20
22.208
 30
0.0
 11
32.442
 21
16.714
 31
0.0
  0
LINE
  5
36A
100
AcDbEntity
  8
0
100
AcDbLine
 10
32.442
 20
22.208
 30
0.0
 11
27.558
 21
16.714
 31
0.0
  0
LINE
  5
36B
100
AcDbEntity
  8
0
100
AcDbLine
 10
30.000
 20
27.701
 30
0.0
 11
30.000
 21
19.156
 31
0.0
  0
ENDBLK
  5
282
100
AcDbEntity
  8
0
100
AcDbBlockEnd
  0
BLOCK
  5
283
100
AcDbEntity
  8
0
100
AcDbBlockBegin
  2
custom_mueugeai_v8q
 70
0
 10
0.0
 20
0.0
 30
0.0
  3
custom_mueugeai_v8q
  1

  0
LINE
  5
36C
100
AcDbEntity
  8
0
100
AcDbLine
 10
-55.000
 20
37.500
 30
0.0
 11
55.000
 21
37.500
 31
0.0
  0
LINE
  5
36D
100
AcDbEntity
  8
0
100
AcDbLine
 10
55.000
 20
37.500
 30
0.0
 11
55.000
 21
-37.500
 31
0.0
  0
LINE
  5
36E
100
AcDbEntity
  8
0
100
AcDbLine
 10
55.000
 20
-37.500
 30
0.0
 11
-55.000
 21
-37.500
 31
0.0
  0
LINE
  5
36F
100
AcDbEntity
  8
0
100
AcDbLine
 10
-55.000
 20
-37.500
 30
0.0
 11
-55.000
 21
37.500
 31
0.0
  0
CIRCLE
  5
370
100
AcDbEntity
  8
0
100
AcDbCircle
 10
-10.000
 20
37.500
 30
0.0
 40
2.000
  0
CIRCLE
  5
371
100
AcDbEntity
  8
0
100
AcDbCircle
 10
15.000
 20
37.500
 30
0.0
 40
2.000
  0
CIRCLE
  5
372
100
AcDbEntity
  8
0
100
AcDbCircle
 10
40.000
 20
37.500
 30
0.0
 40
2.000
  0
CIRCLE
  5
373
100
AcDbEntity
  8
0
100
AcDbCircle
 10
-35.000
 20
37.500
 30
0.0
 40
2.000
  0
CIRCLE
  5
374
100
AcDbEntity
  8
0
100
AcDbCircle
 10
-35.000
 20
-37.500
 30
0.0
 40
2.000
  0
LINE
  5
375
100
AcDbEntity
  8
0
100
AcDbLine
 10
-35.000
 20
-4.753
 30
0.0
 11
-41.253
 21
8.646
 31
0.0
  0
LINE
  5
376
100
AcDbEntity
  8
0
100
AcDbLine
 10
-35.000
 20
-4.753
 30
0.0
 11
-35.000
 21
-10.559
 31
0.0
  0
LINE
  5
377
100
AcDbEntity
  8
0
100
AcDbLine
 10
-35.000
 20
7.306
 30
0.0
 11
-35.000
 21
13.559
 31
0.0
  0
LINE
  5
378
100
AcDbEntity
  8
0
100
AcDbLine
 10
-35.000
 20
12.500
 30
0.0
 11
-35.000
 21
35.500
 31
0.0
  0
LINE
  5
379
100
AcDbEntity
  8
0
100
AcDbLine
 10
-35.000
 20
-7.500
 30
0.0
 11
-35.000
 21
-35.500
 31
0.0
  0
ENDBLK
  5
284
100
AcDbEntity
  8
0
100
AcDbBlockEnd
  0
BLOCK
  5
285
100
AcDbEntity
  8
0
100
AcDbBlockBegin
  2
custom_mug7x4o2_j2y
 70
0
 10
0.0
 20
0.0
 30
0.0
  3
custom_mug7x4o2_j2y
  1

  0
LINE
  5
37A
100
AcDbEntity
  8
0
100
AcDbLine
 10
30.000
 20
-15.000
 30
0.0
 11
40.000
 21
-15.000
 31
0.0
  0
LINE
  5
37B
100
AcDbEntity
  8
0
100
AcDbLine
 10
40.000
 20
-25.000
 30
0.0
 11
40.000
 21
-15.000
 31
0.0
  0
LINE
  5
37C
100
AcDbEntity
  8
0
100
AcDbLine
 10
40.000
 20
-25.000
 30
0.0
 11
30.000
 21
-25.000
 31
0.0
  0
LINE
  5
37D
100
AcDbEntity
  8
0
100
AcDbLine
 10
30.000
 20
-15.000
 30
0.0
 11
30.000
 21
-5.000
 31
0.0
  0
LINE
  5
37E
100
AcDbEntity
  8
0
100
AcDbLine
 10
30.000
 20
-25.000
 30
0.0
 11
30.000
 21
-35.000
 31
0.0
  0
LINE
  5
37F
100
AcDbEntity
  8
0
100
AcDbLine
 10
-30.000
 20
-15.000
 30
0.0
 11
-20.000
 21
-15.000
 31
0.0
  0
LINE
  5
380
100
AcDbEntity
  8
0
100
AcDbLine
 10
-20.000
 20
-25.000
 30
0.0
 11
-20.000
 21
-15.000
 31
0.0
  0
LINE
  5
381
100
AcDbEntity
  8
0
100
AcDbLine
 10
-20.000
 20
-25.000
 30
0.0
 11
-30.000
 21
-25.000
 31
0.0
  0
LINE
  5
382
100
AcDbEntity
  8
0
100
AcDbLine
 10
-30.000
 20
-15.000
 30
0.0
 11
-30.000
 21
-5.000
 31
0.0
  0
LINE
  5
383
100
AcDbEntity
  8
0
100
AcDbLine
 10
-30.000
 20
-25.000
 30
0.0
 11
-30.000
 21
-35.000
 31
0.0
  0
LINE
  5
384
100
AcDbEntity
  8
0
  6
DOT
100
AcDbLine
 10
-34.000
 20
25.000
 30
0.0
 11
25.000
 21
25.000
 31
0.0
  0
ARC
  5
385
100
AcDbEntity
  8
0
100
AcDbCircle
 10
-30.000
 20
33.000
 30
0.0
 40
3.000
100
AcDbArc
 50
90.000
 51
270.000
  0
LINE
  5
386
100
AcDbEntity
  8
0
100
AcDbLine
 10
-39.000
 20
33.000
 30
0.0
 11
-30.000
 21
16.000
 31
0.0
  0
LINE
  5
387
100
AcDbEntity
  8
0
100
AcDbLine
 10
-30.000
 20
30.000
 30
0.0
 11
-30.000
 21
40.000
 31
0.0
  0
LINE
  5
388
100
AcDbEntity
  8
0
100
AcDbLine
 10
-30.000
 20
16.000
 30
0.0
 11
-30.000
 21
12.000
 31
0.0
  0
ARC
  5
389
100
AcDbEntity
  8
0
100
AcDbCircle
 10
0.000
 20
33.000
 30
0.0
 40
3.000
100
AcDbArc
 50
90.000
 51
270.000
  0
LINE
  5
38A
100
AcDbEntity
  8
0
100
AcDbLine
 10
-9.000
 20
33.000
 30
0.0
 11
0.000
 21
16.000
 31
0.0
  0
LINE
  5
38B
100
AcDbEntity
  8
0
100
AcDbLine
 10
0.000
 20
30.000
 30
0.0
 11
0.000
 21
40.000
 31
0.0
  0
LINE
  5
38C
100
AcDbEntity
  8
0
100
AcDbLine
 10
0.000
 20
16.000
 30
0.0
 11
0.000
 21
12.000
 31
0.0
  0
ARC
  5
38D
100
AcDbEntity
  8
0
100
AcDbCircle
 10
30.000
 20
33.000
 30
0.0
 40
3.000
100
AcDbArc
 50
90.000
 51
270.000
  0
LINE
  5
38E
100
AcDbEntity
  8
0
100
AcDbLine
 10
21.000
 20
33.000
 30
0.0
 11
30.000
 21
16.000
 31
0.0
  0
LINE
  5
38F
100
AcDbEntity
  8
0
100
AcDbLine
 10
30.000
 20
30.000
 30
0.0
 11
30.000
 21
40.000
 31
0.0
  0
LINE
  5
390
100
AcDbEntity
  8
0
100
AcDbLine
 10
30.000
 20
16.000
 30
0.0
 11
30.000
 21
12.000
 31
0.0
  0
LINE
  5
391
100
AcDbEntity
  8
0
100
AcDbLine
 10
-30.000
 20
12.000
 30
0.0
 11
-30.000
 21
-5.000
 31
0.0
  0
LINE
  5
392
100
AcDbEntity
  8
0
100
AcDbLine
 10
30.000
 20
12.000
 30
0.0
 11
30.000
 21
-5.000
 31
0.0
  0
LINE
  5
393
100
AcDbEntity
  8
0
100
AcDbLine
 10
0.000
 20
12.000
 30
0.0
 11
0.000
 21
-35.000
 31
0.0
  0
ENDBLK
  5
286
100
AcDbEntity
  8
0
100
AcDbBlockEnd
  0
ENDSEC
  0
SECTION
  2
ENTITIES
  0
LINE
  5
394
100
AcDbEntity
  8
FRAME
100
AcDbLine
 10
0.000
 20
594.000
 30
0.0
 11
840.000
 21
594.000
 31
0.0
  0
LINE
  5
395
100
AcDbEntity
  8
FRAME
100
AcDbLine
 10
840.000
 20
594.000
 30
0.0
 11
840.000
 21
0.000
 31
0.0
  0
LINE
  5
396
100
AcDbEntity
  8
FRAME
100
AcDbLine
 10
840.000
 20
0.000
 30
0.0
 11
0.000
 21
0.000
 31
0.0
  0
LINE
  5
397
100
AcDbEntity
  8
FRAME
100
AcDbLine
 10
0.000
 20
0.000
 30
0.0
 11
0.000
 21
594.000
 31
0.0
  0
LINE
  5
398
100
AcDbEntity
  8
FRAME
100
AcDbLine
 10
20.000
 20
574.000
 30
0.0
 11
820.000
 21
574.000
 31
0.0
  0
LINE
  5
399
100
AcDbEntity
  8
FRAME
100
AcDbLine
 10
820.000
 20
574.000
 30
0.0
 11
820.000
 21
20.000
 31
0.0
  0
LINE
  5
39A
100
AcDbEntity
  8
FRAME
100
AcDbLine
 10
820.000
 20
20.000
 30
0.0
 11
20.000
 21
20.000
 31
0.0
  0
LINE
  5
39B
100
AcDbEntity
  8
FRAME
100
AcDbLine
 10
20.000
 20
20.000
 30
0.0
 11
20.000
 21
574.000
 31
0.0
  0
LINE
  5
39C
100
AcDbEntity
  8
FRAME
100
AcDbLine
 10
20.000
 20
80.000
 30
0.0
 11
820.000
 21
80.000
 31
0.0
  0
LINE
  5
39D
100
AcDbEntity
  8
FRAME
100
AcDbLine
 10
20.000
 20
80.000
 30
0.0
 11
220.000
 21
80.000
 31
0.0
  0
LINE
  5
39E
100
AcDbEntity
  8
FRAME
100
AcDbLine
 10
220.000
 20
80.000
 30
0.0
 11
220.000
 21
50.000
 31
0.0
  0
LINE
  5
39F
100
AcDbEntity
  8
FRAME
100
AcDbLine
 10
220.000
 20
50.000
 30
0.0
 11
20.000
 21
50.000
 31
0.0
  0
LINE
  5
3A0
100
AcDbEntity
  8
FRAME
100
AcDbLine
 10
20.000
 20
50.000
 30
0.0
 11
20.000
 21
80.000
 31
0.0
  0
TEXT
  5
3A1
100
AcDbEntity
  8
FRAME
100
AcDbText
 10
22.000
 20
71.000
 30
0.0
 40
5.76
  1
ê}ñ î‘çÜ
  7
STANDARD
 72
0
 11
22.000
 21
71.000
 31
0.0
100
AcDbText
 73
0
  0
LINE
  5
3A2
100
AcDbEntity
  8
FRAME
100
AcDbLine
 10
220.000
 20
80.000
 30
0.0
 11
500.000
 21
80.000
 31
0.0
  0
LINE
  5
3A3
100
AcDbEntity
  8
FRAME
100
AcDbLine
 10
500.000
 20
80.000
 30
0.0
 11
500.000
 21
50.000
 31
0.0
  0
LINE
  5
3A4
100
AcDbEntity
  8
FRAME
100
AcDbLine
 10
500.000
 20
50.000
 30
0.0
 11
220.000
 21
50.000
 31
0.0
  0
LINE
  5
3A5
100
AcDbEntity
  8
FRAME
100
AcDbLine
 10
220.000
 20
50.000
 30
0.0
 11
220.000
 21
80.000
 31
0.0
  0
TEXT
  5
3A6
100
AcDbEntity
  8
FRAME
100
AcDbText
 10
222.000
 20
71.000
 30
0.0
 40
5.76
  1
ê}ñ ñºèÃ
  7
STANDARD
 72
0
 11
222.000
 21
71.000
 31
0.0
100
AcDbText
 73
0
  0
LINE
  5
3A7
100
AcDbEntity
  8
FRAME
100
AcDbLine
 10
500.000
 20
80.000
 30
0.0
 11
660.000
 21
80.000
 31
0.0
  0
LINE
  5
3A8
100
AcDbEntity
  8
FRAME
100
AcDbLine
 10
660.000
 20
80.000
 30
0.0
 11
660.000
 21
50.000
 31
0.0
  0
LINE
  5
3A9
100
AcDbEntity
  8
FRAME
100
AcDbLine
 10
660.000
 20
50.000
 30
0.0
 11
500.000
 21
50.000
 31
0.0
  0
LINE
  5
3AA
100
AcDbEntity
  8
FRAME
100
AcDbLine
 10
500.000
 20
50.000
 30
0.0
 11
500.000
 21
80.000
 31
0.0
  0
TEXT
  5
3AB
100
AcDbEntity
  8
FRAME
100
AcDbText
 10
502.000
 20
71.000
 30
0.0
 40
5.76
  1
âÔé–ñº
  7
STANDARD
 72
0
 11
502.000
 21
71.000
 31
0.0
100
AcDbText
 73
0
  0
LINE
  5
3AC
100
AcDbEntity
  8
FRAME
100
AcDbLine
 10
660.000
 20
80.000
 30
0.0
 11
820.000
 21
80.000
 31
0.0
  0
LINE
  5
3AD
100
AcDbEntity
  8
FRAME
100
AcDbLine
 10
820.000
 20
80.000
 30
0.0
 11
820.000
 21
50.000
 31
0.0
  0
LINE
  5
3AE
100
AcDbEntity
  8
FRAME
100
AcDbLine
 10
820.000
 20
50.000
 30
0.0
 11
660.000
 21
50.000
 31
0.0
  0
LINE
  5
3AF
100
AcDbEntity
  8
FRAME
100
AcDbLine
 10
660.000
 20
50.000
 30
0.0
 11
660.000
 21
80.000
 31
0.0
  0
TEXT
  5
3B0
100
AcDbEntity
  8
FRAME
100
AcDbText
 10
662.000
 20
71.000
 30
0.0
 40
5.76
  1
ê›îıñº
  7
STANDARD
 72
0
 11
662.000
 21
71.000
 31
0.0
100
AcDbText
 73
0
  0
TEXT
  5
3B1
100
AcDbEntity
  8
FRAME
100
AcDbText
 10
663.000
 20
55.000
 30
0.0
 40
7.199999999999999
  1
édólÇQ
  7
STANDARD
 72
0
 11
663.000
 21
55.000
 31
0.0
100
AcDbText
 73
0
  0
LINE
  5
3B2
100
AcDbEntity
  8
FRAME
100
AcDbLine
 10
20.000
 20
50.000
 30
0.0
 11
116.000
 21
50.000
 31
0.0
  0
LINE
  5
3B3
100
AcDbEntity
  8
FRAME
100
AcDbLine
 10
116.000
 20
50.000
 30
0.0
 11
116.000
 21
20.000
 31
0.0
  0
LINE
  5
3B4
100
AcDbEntity
  8
FRAME
100
AcDbLine
 10
116.000
 20
20.000
 30
0.0
 11
20.000
 21
20.000
 31
0.0
  0
LINE
  5
3B5
100
AcDbEntity
  8
FRAME
100
AcDbLine
 10
20.000
 20
20.000
 30
0.0
 11
20.000
 21
50.000
 31
0.0
  0
TEXT
  5
3B6
100
AcDbEntity
  8
FRAME
100
AcDbText
 10
22.000
 20
41.000
 30
0.0
 40
5.76
  1
çÏê¨
  7
STANDARD
 72
0
 11
22.000
 21
41.000
 31
0.0
100
AcDbText
 73
0
  0
TEXT
  5
3B7
100
AcDbEntity
  8
FRAME
100
AcDbText
 10
23.000
 20
25.000
 30
0.0
 40
7.199999999999999
  1
ê∑ìc
  7
STANDARD
 72
0
 11
23.000
 21
25.000
 31
0.0
100
AcDbText
 73
0
  0
LINE
  5
3B8
100
AcDbEntity
  8
FRAME
100
AcDbLine
 10
116.000
 20
50.000
 30
0.0
 11
212.000
 21
50.000
 31
0.0
  0
LINE
  5
3B9
100
AcDbEntity
  8
FRAME
100
AcDbLine
 10
212.000
 20
50.000
 30
0.0
 11
212.000
 21
20.000
 31
0.0
  0
LINE
  5
3BA
100
AcDbEntity
  8
FRAME
100
AcDbLine
 10
212.000
 20
20.000
 30
0.0
 11
116.000
 21
20.000
 31
0.0
  0
LINE
  5
3BB
100
AcDbEntity
  8
FRAME
100
AcDbLine
 10
116.000
 20
20.000
 30
0.0
 11
116.000
 21
50.000
 31
0.0
  0
TEXT
  5
3BC
100
AcDbEntity
  8
FRAME
100
AcDbText
 10
118.000
 20
41.000
 30
0.0
 40
5.76
  1
è≥îF
  7
STANDARD
 72
0
 11
118.000
 21
41.000
 31
0.0
100
AcDbText
 73
0
  0
LINE
  5
3BD
100
AcDbEntity
  8
FRAME
100
AcDbLine
 10
212.000
 20
50.000
 30
0.0
 11
372.000
 21
50.000
 31
0.0
  0
LINE
  5
3BE
100
AcDbEntity
  8
FRAME
100
AcDbLine
 10
372.000
 20
50.000
 30
0.0
 11
372.000
 21
20.000
 31
0.0
  0
LINE
  5
3BF
100
AcDbEntity
  8
FRAME
100
AcDbLine
 10
372.000
 20
20.000
 30
0.0
 11
212.000
 21
20.000
 31
0.0
  0
LINE
  5
3C0
100
AcDbEntity
  8
FRAME
100
AcDbLine
 10
212.000
 20
20.000
 30
0.0
 11
212.000
 21
50.000
 31
0.0
  0
TEXT
  5
3C1
100
AcDbEntity
  8
FRAME
100
AcDbText
 10
214.000
 20
41.000
 30
0.0
 40
5.76
  1
ì˙ït
  7
STANDARD
 72
0
 11
214.000
 21
41.000
 31
0.0
100
AcDbText
 73
0
  0
TEXT
  5
3C2
100
AcDbEntity
  8
FRAME
100
AcDbText
 10
215.000
 20
25.000
 30
0.0
 40
7.199999999999999
  1
2026-08-01
  7
STANDARD
 72
0
 11
215.000
 21
25.000
 31
0.0
100
AcDbText
 73
0
  0
LINE
  5
3C3
100
AcDbEntity
  8
FRAME
100
AcDbLine
 10
372.000
 20
50.000
 30
0.0
 11
452.000
 21
50.000
 31
0.0
  0
LINE
  5
3C4
100
AcDbEntity
  8
FRAME
100
AcDbLine
 10
452.000
 20
50.000
 30
0.0
 11
452.000
 21
20.000
 31
0.0
  0
LINE
  5
3C5
100
AcDbEntity
  8
FRAME
100
AcDbLine
 10
452.000
 20
20.000
 30
0.0
 11
372.000
 21
20.000
 31
0.0
  0
LINE
  5
3C6
100
AcDbEntity
  8
FRAME
100
AcDbLine
 10
372.000
 20
20.000
 30
0.0
 11
372.000
 21
50.000
 31
0.0
  0
TEXT
  5
3C7
100
AcDbEntity
  8
FRAME
100
AcDbText
 10
374.000
 20
41.000
 30
0.0
 40
5.76
  1
èké⁄
  7
STANDARD
 72
0
 11
374.000
 21
41.000
 31
0.0
100
AcDbText
 73
0
  0
LINE
  5
3C8
100
AcDbEntity
  8
FRAME
100
AcDbLine
 10
452.000
 20
50.000
 30
0.0
 11
500.000
 21
50.000
 31
0.0
  0
LINE
  5
3C9
100
AcDbEntity
  8
FRAME
100
AcDbLine
 10
500.000
 20
50.000
 30
0.0
 11
500.000
 21
20.000
 31
0.0
  0
LINE
  5
3CA
100
AcDbEntity
  8
FRAME
100
AcDbLine
 10
500.000
 20
20.000
 30
0.0
 11
452.000
 21
20.000
 31
0.0
  0
LINE
  5
3CB
100
AcDbEntity
  8
FRAME
100
AcDbLine
 10
452.000
 20
20.000
 30
0.0
 11
452.000
 21
50.000
 31
0.0
  0
TEXT
  5
3CC
100
AcDbEntity
  8
FRAME
100
AcDbText
 10
454.000
 20
41.000
 30
0.0
 40
5.76
  1
Rev
  7
STANDARD
 72
0
 11
454.000
 21
41.000
 31
0.0
100
AcDbText
 73
0
  0
LINE
  5
3CD
100
AcDbEntity
  8
FRAME
100
AcDbLine
 10
500.000
 20
50.000
 30
0.0
 11
780.000
 21
50.000
 31
0.0
  0
LINE
  5
3CE
100
AcDbEntity
  8
FRAME
100
AcDbLine
 10
780.000
 20
50.000
 30
0.0
 11
780.000
 21
20.000
 31
0.0
  0
LINE
  5
3CF
100
AcDbEntity
  8
FRAME
100
AcDbLine
 10
780.000
 20
20.000
 30
0.0
 11
500.000
 21
20.000
 31
0.0
  0
LINE
  5
3D0
100
AcDbEntity
  8
FRAME
100
AcDbLine
 10
500.000
 20
20.000
 30
0.0
 11
500.000
 21
50.000
 31
0.0
  0
TEXT
  5
3D1
100
AcDbEntity
  8
FRAME
100
AcDbText
 10
502.000
 20
41.000
 30
0.0
 40
5.76
  1
ïœçXóöó
  7
STANDARD
 72
0
 11
502.000
 21
41.000
 31
0.0
100
AcDbText
 73
0
  0
LINE
  5
3D2
100
AcDbEntity
  8
FRAME
100
AcDbLine
 10
780.000
 20
50.000
 30
0.0
 11
820.000
 21
50.000
 31
0.0
  0
LINE
  5
3D3
100
AcDbEntity
  8
FRAME
100
AcDbLine
 10
820.000
 20
50.000
 30
0.0
 11
820.000
 21
20.000
 31
0.0
  0
LINE
  5
3D4
100
AcDbEntity
  8
FRAME
100
AcDbLine
 10
820.000
 20
20.000
 30
0.0
 11
780.000
 21
20.000
 31
0.0
  0
LINE
  5
3D5
100
AcDbEntity
  8
FRAME
100
AcDbLine
 10
780.000
 20
20.000
 30
0.0
 11
780.000
 21
50.000
 31
0.0
  0
TEXT
  5
3D6
100
AcDbEntity
  8
FRAME
100
AcDbText
 10
782.000
 20
41.000
 30
0.0
 40
5.76
  1
ÉyÅ[ÉW
  7
STANDARD
 72
0
 11
782.000
 21
41.000
 31
0.0
100
AcDbText
 73
0
  0
TEXT
  5
3D7
100
AcDbEntity
  8
FRAME
100
AcDbText
 10
783.000
 20
25.000
 30
0.0
 40
7.199999999999999
  1
1 / 1
  7
STANDARD
 72
0
 11
783.000
 21
25.000
 31
0.0
100
AcDbText
 73
0
  0
LINE
  5
3D8
100
AcDbEntity
  8
FRAME
100
AcDbLine
 10
86.667
 20
594.000
 30
0.0
 11
86.667
 21
574.000
 31
0.0
  0
LINE
  5
3D9
100
AcDbEntity
  8
FRAME
100
AcDbLine
 10
86.667
 20
20.000
 30
0.0
 11
86.667
 21
0.000
 31
0.0
  0
LINE
  5
3DA
100
AcDbEntity
  8
FRAME
100
AcDbLine
 10
153.333
 20
594.000
 30
0.0
 11
153.333
 21
574.000
 31
0.0
  0
LINE
  5
3DB
100
AcDbEntity
  8
FRAME
100
AcDbLine
 10
153.333
 20
20.000
 30
0.0
 11
153.333
 21
0.000
 31
0.0
  0
LINE
  5
3DC
100
AcDbEntity
  8
FRAME
100
AcDbLine
 10
220.000
 20
594.000
 30
0.0
 11
220.000
 21
574.000
 31
0.0
  0
LINE
  5
3DD
100
AcDbEntity
  8
FRAME
100
AcDbLine
 10
220.000
 20
20.000
 30
0.0
 11
220.000
 21
0.000
 31
0.0
  0
LINE
  5
3DE
100
AcDbEntity
  8
FRAME
100
AcDbLine
 10
286.667
 20
594.000
 30
0.0
 11
286.667
 21
574.000
 31
0.0
  0
LINE
  5
3DF
100
AcDbEntity
  8
FRAME
100
AcDbLine
 10
286.667
 20
20.000
 30
0.0
 11
286.667
 21
0.000
 31
0.0
  0
LINE
  5
3E0
100
AcDbEntity
  8
FRAME
100
AcDbLine
 10
353.333
 20
594.000
 30
0.0
 11
353.333
 21
574.000
 31
0.0
  0
LINE
  5
3E1
100
AcDbEntity
  8
FRAME
100
AcDbLine
 10
353.333
 20
20.000
 30
0.0
 11
353.333
 21
0.000
 31
0.0
  0
LINE
  5
3E2
100
AcDbEntity
  8
FRAME
100
AcDbLine
 10
420.000
 20
594.000
 30
0.0
 11
420.000
 21
574.000
 31
0.0
  0
LINE
  5
3E3
100
AcDbEntity
  8
FRAME
100
AcDbLine
 10
420.000
 20
20.000
 30
0.0
 11
420.000
 21
0.000
 31
0.0
  0
LINE
  5
3E4
100
AcDbEntity
  8
FRAME
100
AcDbLine
 10
486.667
 20
594.000
 30
0.0
 11
486.667
 21
574.000
 31
0.0
  0
LINE
  5
3E5
100
AcDbEntity
  8
FRAME
100
AcDbLine
 10
486.667
 20
20.000
 30
0.0
 11
486.667
 21
0.000
 31
0.0
  0
LINE
  5
3E6
100
AcDbEntity
  8
FRAME
100
AcDbLine
 10
553.333
 20
594.000
 30
0.0
 11
553.333
 21
574.000
 31
0.0
  0
LINE
  5
3E7
100
AcDbEntity
  8
FRAME
100
AcDbLine
 10
553.333
 20
20.000
 30
0.0
 11
553.333
 21
0.000
 31
0.0
  0
LINE
  5
3E8
100
AcDbEntity
  8
FRAME
100
AcDbLine
 10
620.000
 20
594.000
 30
0.0
 11
620.000
 21
574.000
 31
0.0
  0
LINE
  5
3E9
100
AcDbEntity
  8
FRAME
100
AcDbLine
 10
620.000
 20
20.000
 30
0.0
 11
620.000
 21
0.000
 31
0.0
  0
LINE
  5
3EA
100
AcDbEntity
  8
FRAME
100
AcDbLine
 10
686.667
 20
594.000
 30
0.0
 11
686.667
 21
574.000
 31
0.0
  0
LINE
  5
3EB
100
AcDbEntity
  8
FRAME
100
AcDbLine
 10
686.667
 20
20.000
 30
0.0
 11
686.667
 21
0.000
 31
0.0
  0
LINE
  5
3EC
100
AcDbEntity
  8
FRAME
100
AcDbLine
 10
753.333
 20
594.000
 30
0.0
 11
753.333
 21
574.000
 31
0.0
  0
LINE
  5
3ED
100
AcDbEntity
  8
FRAME
100
AcDbLine
 10
753.333
 20
20.000
 30
0.0
 11
753.333
 21
0.000
 31
0.0
  0
TEXT
  5
3EE
100
AcDbEntity
  8
FRAME
100
AcDbText
 10
53.333
 20
582.000
 30
0.0
 40
4.32
  1
1
  7
STANDARD
 72
1
 11
53.333
 21
582.000
 31
0.0
100
AcDbText
 73
0
  0
TEXT
  5
3EF
100
AcDbEntity
  8
FRAME
100
AcDbText
 10
120.000
 20
582.000
 30
0.0
 40
4.32
  1
2
  7
STANDARD
 72
1
 11
120.000
 21
582.000
 31
0.0
100
AcDbText
 73
0
  0
TEXT
  5
3F0
100
AcDbEntity
  8
FRAME
100
AcDbText
 10
186.667
 20
582.000
 30
0.0
 40
4.32
  1
3
  7
STANDARD
 72
1
 11
186.667
 21
582.000
 31
0.0
100
AcDbText
 73
0
  0
TEXT
  5
3F1
100
AcDbEntity
  8
FRAME
100
AcDbText
 10
253.333
 20
582.000
 30
0.0
 40
4.32
  1
4
  7
STANDARD
 72
1
 11
253.333
 21
582.000
 31
0.0
100
AcDbText
 73
0
  0
TEXT
  5
3F2
100
AcDbEntity
  8
FRAME
100
AcDbText
 10
320.000
 20
582.000
 30
0.0
 40
4.32
  1
5
  7
STANDARD
 72
1
 11
320.000
 21
582.000
 31
0.0
100
AcDbText
 73
0
  0
TEXT
  5
3F3
100
AcDbEntity
  8
FRAME
100
AcDbText
 10
386.667
 20
582.000
 30
0.0
 40
4.32
  1
6
  7
STANDARD
 72
1
 11
386.667
 21
582.000
 31
0.0
100
AcDbText
 73
0
  0
TEXT
  5
3F4
100
AcDbEntity
  8
FRAME
100
AcDbText
 10
453.333
 20
582.000
 30
0.0
 40
4.32
  1
7
  7
STANDARD
 72
1
 11
453.333
 21
582.000
 31
0.0
100
AcDbText
 73
0
  0
TEXT
  5
3F5
100
AcDbEntity
  8
FRAME
100
AcDbText
 10
520.000
 20
582.000
 30
0.0
 40
4.32
  1
8
  7
STANDARD
 72
1
 11
520.000
 21
582.000
 31
0.0
100
AcDbText
 73
0
  0
TEXT
  5
3F6
100
AcDbEntity
  8
FRAME
100
AcDbText
 10
586.667
 20
582.000
 30
0.0
 40
4.32
  1
9
  7
STANDARD
 72
1
 11
586.667
 21
582.000
 31
0.0
100
AcDbText
 73
0
  0
TEXT
  5
3F7
100
AcDbEntity
  8
FRAME
100
AcDbText
 10
653.333
 20
582.000
 30
0.0
 40
4.32
  1
10
  7
STANDARD
 72
1
 11
653.333
 21
582.000
 31
0.0
100
AcDbText
 73
0
  0
TEXT
  5
3F8
100
AcDbEntity
  8
FRAME
100
AcDbText
 10
720.000
 20
582.000
 30
0.0
 40
4.32
  1
11
  7
STANDARD
 72
1
 11
720.000
 21
582.000
 31
0.0
100
AcDbText
 73
0
  0
TEXT
  5
3F9
100
AcDbEntity
  8
FRAME
100
AcDbText
 10
786.667
 20
582.000
 30
0.0
 40
4.32
  1
12
  7
STANDARD
 72
1
 11
786.667
 21
582.000
 31
0.0
100
AcDbText
 73
0
  0
LINE
  5
3FA
100
AcDbEntity
  8
FRAME
100
AcDbLine
 10
0.000
 20
450.500
 30
0.0
 11
20.000
 21
450.500
 31
0.0
  0
LINE
  5
3FB
100
AcDbEntity
  8
FRAME
100
AcDbLine
 10
820.000
 20
450.500
 30
0.0
 11
840.000
 21
450.500
 31
0.0
  0
LINE
  5
3FC
100
AcDbEntity
  8
FRAME
100
AcDbLine
 10
0.000
 20
327.000
 30
0.0
 11
20.000
 21
327.000
 31
0.0
  0
LINE
  5
3FD
100
AcDbEntity
  8
FRAME
100
AcDbLine
 10
820.000
 20
327.000
 30
0.0
 11
840.000
 21
327.000
 31
0.0
  0
LINE
  5
3FE
100
AcDbEntity
  8
FRAME
100
AcDbLine
 10
0.000
 20
203.500
 30
0.0
 11
20.000
 21
203.500
 31
0.0
  0
LINE
  5
3FF
100
AcDbEntity
  8
FRAME
100
AcDbLine
 10
820.000
 20
203.500
 30
0.0
 11
840.000
 21
203.500
 31
0.0
  0
TEXT
  5
400
100
AcDbEntity
  8
FRAME
100
AcDbText
 10
10.000
 20
512.250
 30
0.0
 40
4.32
  1
A
  7
STANDARD
 72
1
 11
10.000
 21
512.250
 31
0.0
100
AcDbText
 73
0
  0
TEXT
  5
401
100
AcDbEntity
  8
FRAME
100
AcDbText
 10
830.000
 20
512.250
 30
0.0
 40
4.32
  1
A
  7
STANDARD
 72
1
 11
830.000
 21
512.250
 31
0.0
100
AcDbText
 73
0
  0
TEXT
  5
402
100
AcDbEntity
  8
FRAME
100
AcDbText
 10
10.000
 20
388.750
 30
0.0
 40
4.32
  1
B
  7
STANDARD
 72
1
 11
10.000
 21
388.750
 31
0.0
100
AcDbText
 73
0
  0
TEXT
  5
403
100
AcDbEntity
  8
FRAME
100
AcDbText
 10
830.000
 20
388.750
 30
0.0
 40
4.32
  1
B
  7
STANDARD
 72
1
 11
830.000
 21
388.750
 31
0.0
100
AcDbText
 73
0
  0
TEXT
  5
404
100
AcDbEntity
  8
FRAME
100
AcDbText
 10
10.000
 20
265.250
 30
0.0
 40
4.32
  1
C
  7
STANDARD
 72
1
 11
10.000
 21
265.250
 31
0.0
100
AcDbText
 73
0
  0
TEXT
  5
405
100
AcDbEntity
  8
FRAME
100
AcDbText
 10
830.000
 20
265.250
 30
0.0
 40
4.32
  1
C
  7
STANDARD
 72
1
 11
830.000
 21
265.250
 31
0.0
100
AcDbText
 73
0
  0
TEXT
  5
406
100
AcDbEntity
  8
FRAME
100
AcDbText
 10
10.000
 20
141.750
 30
0.0
 40
4.32
  1
D
  7
STANDARD
 72
1
 11
10.000
 21
141.750
 31
0.0
100
AcDbText
 73
0
  0
TEXT
  5
407
100
AcDbEntity
  8
FRAME
100
AcDbText
 10
830.000
 20
141.750
 30
0.0
 40
4.32
  1
D
  7
STANDARD
 72
1
 11
830.000
 21
141.750
 31
0.0
100
AcDbText
 73
0
  0
LINE
  5
408
100
AcDbEntity
  8
CIRCUIT
100
AcDbLine
 10
100.000
 20
521.000
 30
0.0
 11
100.000
 21
489.000
 31
0.0
  0
TEXT
  5
409
100
AcDbEntity
  8
CIRCUIT
100
AcDbText
 10
107.000
 20
495.000
 30
0.0
 40
5.04
  1
R
  7
STANDARD
 72
1
 11
107.000
 21
495.000
 31
0.0
100
AcDbText
 73
0
  0
LINE
  5
40A
100
AcDbEntity
  8
CIRCUIT
100
AcDbLine
 10
130.000
 20
434.000
 30
0.0
 11
130.000
 21
336.000
 31
0.0
  0
TEXT
  5
40B
100
AcDbEntity
  8
CIRCUIT
100
AcDbText
 10
137.000
 20
380.000
 30
0.0
 40
5.04
  1
S1
  7
STANDARD
 72
1
 11
137.000
 21
380.000
 31
0.0
100
AcDbText
 73
0
  0
LINE
  5
40C
100
AcDbEntity
  8
CIRCUIT
100
AcDbLine
 10
160.000
 20
434.000
 30
0.0
 11
160.000
 21
336.000
 31
0.0
  0
TEXT
  5
40D
100
AcDbEntity
  8
CIRCUIT
100
AcDbText
 10
167.000
 20
380.000
 30
0.0
 40
5.04
  1
T1
  7
STANDARD
 72
1
 11
167.000
 21
380.000
 31
0.0
100
AcDbText
 73
0
  0
LINE
  5
40E
100
AcDbEntity
  8
CIRCUIT
100
AcDbLine
 10
100.000
 20
292.000
 30
0.0
 11
100.000
 21
177.000
 31
0.0
  0
TEXT
  5
40F
100
AcDbEntity
  8
CIRCUIT
100
AcDbText
 10
107.000
 20
234.500
 30
0.0
 40
5.04
  1
U
  7
STANDARD
 72
1
 11
107.000
 21
234.500
 31
0.0
100
AcDbText
 73
0
  0
LINE
  5
410
100
AcDbEntity
  8
CIRCUIT
100
AcDbLine
 10
160.000
 20
292.000
 30
0.0
 11
160.000
 21
177.000
 31
0.0
  0
TEXT
  5
411
100
AcDbEntity
  8
CIRCUIT
100
AcDbText
 10
167.000
 20
234.500
 30
0.0
 40
5.04
  1
W
  7
STANDARD
 72
1
 11
167.000
 21
234.500
 31
0.0
100
AcDbText
 73
0
  0
LINE
  5
412
100
AcDbEntity
  8
CIRCUIT
100
AcDbLine
 10
100.000
 20
434.000
 30
0.0
 11
100.000
 21
336.000
 31
0.0
  0
TEXT
  5
413
100
AcDbEntity
  8
CIRCUIT
100
AcDbText
 10
107.000
 20
380.000
 30
0.0
 40
5.04
  1
R1
  7
STANDARD
 72
1
 11
107.000
 21
380.000
 31
0.0
100
AcDbText
 73
0
  0
LINE
  5
414
100
AcDbEntity
  8
CIRCUIT
100
AcDbLine
 10
130.000
 20
521.000
 30
0.0
 11
130.000
 21
489.000
 31
0.0
  0
TEXT
  5
415
100
AcDbEntity
  8
CIRCUIT
100
AcDbText
 10
137.000
 20
495.000
 30
0.0
 40
5.04
  1
S
  7
STANDARD
 72
1
 11
137.000
 21
495.000
 31
0.0
100
AcDbText
 73
0
  0
LINE
  5
416
100
AcDbEntity
  8
CIRCUIT
100
AcDbLine
 10
160.000
 20
521.000
 30
0.0
 11
160.000
 21
489.000
 31
0.0
  0
TEXT
  5
417
100
AcDbEntity
  8
CIRCUIT
100
AcDbText
 10
167.000
 20
495.000
 30
0.0
 40
5.04
  1
T
  7
STANDARD
 72
1
 11
167.000
 21
495.000
 31
0.0
100
AcDbText
 73
0
  0
LINE
  5
418
100
AcDbEntity
  8
CIRCUIT
100
AcDbLine
 10
70.000
 20
521.000
 30
0.0
 11
70.000
 21
177.000
 31
0.0
  0
TEXT
  5
419
100
AcDbEntity
  8
CIRCUIT
100
AcDbText
 10
78.000
 20
379.000
 30
0.0
 40
5.04
  1
E
  7
STANDARD
 72
1
 11
78.000
 21
379.000
 31
0.0
100
AcDbText
 73
0
  0
LINE
  5
41A
100
AcDbEntity
  8
CIRCUIT
100
AcDbLine
 10
280.000
 20
194.000
 30
0.0
 11
665.000
 21
194.000
 31
0.0
  0
LINE
  5
41B
100
AcDbEntity
  8
CIRCUIT
100
AcDbLine
 10
357.879
 20
434.000
 30
0.0
 11
450.000
 21
434.000
 31
0.0
  0
TEXT
  5
41C
100
AcDbEntity
  8
CIRCUIT
100
AcDbText
 10
408.939
 20
437.000
 30
0.0
 40
5.04
  1
L2
  7
STANDARD
 72
1
 11
408.939
 21
437.000
 31
0.0
100
AcDbText
 73
0
  0
LINE
  5
41D
100
AcDbEntity
  8
CIRCUIT
100
AcDbLine
 10
280.000
 20
521.000
 30
0.0
 11
280.000
 21
499.000
 31
0.0
  0
TEXT
  5
41E
100
AcDbEntity
  8
CIRCUIT
100
AcDbText
 10
287.000
 20
500.000
 30
0.0
 40
5.04
  1
N
  7
STANDARD
 72
1
 11
287.000
 21
500.000
 31
0.0
100
AcDbText
 73
0
  0
LINE
  5
41F
100
AcDbEntity
  8
CIRCUIT
100
AcDbLine
 10
310.000
 20
521.000
 30
0.0
 11
310.000
 21
499.000
 31
0.0
  0
TEXT
  5
420
100
AcDbEntity
  8
CIRCUIT
100
AcDbText
 10
317.000
 20
500.000
 30
0.0
 40
5.04
  1
L
  7
STANDARD
 72
1
 11
317.000
 21
500.000
 31
0.0
100
AcDbText
 73
0
  0
LINE
  5
421
100
AcDbEntity
  8
CIRCUIT
100
AcDbLine
 10
280.000
 20
467.000
 30
0.0
 11
280.000
 21
194.000
 31
0.0
  0
TEXT
  5
422
100
AcDbEntity
  8
CIRCUIT
100
AcDbText
 10
287.000
 20
330.500
 30
0.0
 40
5.04
  1
N1
  7
STANDARD
 72
1
 11
287.000
 21
330.500
 31
0.0
100
AcDbText
 73
0
  0
LINE
  5
423
100
AcDbEntity
  8
CIRCUIT
100
AcDbLine
 10
310.000
 20
467.000
 30
0.0
 11
310.000
 21
434.000
 31
0.0
  0
TEXT
  5
424
100
AcDbEntity
  8
CIRCUIT
100
AcDbText
 10
317.000
 20
450.500
 30
0.0
 40
5.04
  1
L1
  7
STANDARD
 72
1
 11
317.000
 21
450.500
 31
0.0
100
AcDbText
 73
0
  0
LINE
  5
425
100
AcDbEntity
  8
CIRCUIT
100
AcDbLine
 10
360.000
 20
434.000
 30
0.0
 11
360.000
 21
416.000
 31
0.0
  0
LINE
  5
426
100
AcDbEntity
  8
CIRCUIT
100
AcDbLine
 10
360.000
 20
390.000
 30
0.0
 11
360.000
 21
363.000
 31
0.0
  0
TEXT
  5
427
100
AcDbEntity
  8
CIRCUIT
100
AcDbText
 10
368.000
 20
381.500
 30
0.0
 40
4.32
  1
01
  7
STANDARD
 72
1
 11
368.000
 21
381.500
 31
0.0
100
AcDbText
 73
0
  0
LINE
  5
428
100
AcDbEntity
  8
CIRCUIT
100
AcDbLine
 10
390.000
 20
433.000
 30
0.0
 11
390.000
 21
413.000
 31
0.0
  0
LINE
  5
429
100
AcDbEntity
  8
CIRCUIT
100
AcDbLine
 10
390.000
 20
391.000
 30
0.0
 11
390.000
 21
375.000
 31
0.0
  0
LINE
  5
42A
100
AcDbEntity
  8
CIRCUIT
100
AcDbLine
 10
360.000
 20
375.000
 30
0.0
 11
390.000
 21
375.000
 31
0.0
  0
LINE
  5
42B
100
AcDbEntity
  8
CIRCUIT
100
AcDbLine
 10
360.000
 20
194.000
 30
0.0
 11
360.000
 21
207.000
 31
0.0
  0
LINE
  5
42C
100
AcDbEntity
  8
CIRCUIT
100
AcDbLine
 10
360.000
 20
281.000
 30
0.0
 11
360.000
 21
269.000
 31
0.0
  0
TEXT
  5
42D
100
AcDbEntity
  8
CIRCUIT
100
AcDbText
 10
368.000
 20
270.000
 30
0.0
 40
4.32
  1
03
  7
STANDARD
 72
1
 11
368.000
 21
270.000
 31
0.0
100
AcDbText
 73
0
  0
LINE
  5
42E
100
AcDbEntity
  8
CIRCUIT
100
AcDbLine
 10
360.000
 20
249.000
 30
0.0
 11
360.000
 21
230.000
 31
0.0
  0
TEXT
  5
42F
100
AcDbEntity
  8
CIRCUIT
100
AcDbText
 10
368.000
 20
239.500
 30
0.0
 40
4.32
  1
04
  7
STANDARD
 72
1
 11
368.000
 21
239.500
 31
0.0
100
AcDbText
 73
0
  0
LINE
  5
430
100
AcDbEntity
  8
CIRCUIT
100
AcDbLine
 10
130.000
 20
292.000
 30
0.0
 11
130.000
 21
177.000
 31
0.0
  0
TEXT
  5
431
100
AcDbEntity
  8
CIRCUIT
100
AcDbText
 10
137.000
 20
234.500
 30
0.0
 40
5.04
  1
V
  7
STANDARD
 72
1
 11
137.000
 21
234.500
 31
0.0
100
AcDbText
 73
0
  0
LINE
  5
432
100
AcDbEntity
  8
CIRCUIT
100
AcDbLine
 10
690.000
 20
443.500
 30
0.0
 11
690.000
 21
499.000
 31
0.0
  0
TEXT
  5
433
100
AcDbEntity
  8
CIRCUIT
100
AcDbText
 10
697.000
 20
456.250
 30
0.0
 40
4.32
  1
SD
  7
STANDARD
 72
1
 11
697.000
 21
456.250
 31
0.0
100
AcDbText
 73
0
  0
LINE
  5
434
100
AcDbEntity
  8
CIRCUIT
100
AcDbLine
 10
690.000
 20
499.000
 30
0.0
 11
740.000
 21
499.000
 31
0.0
  0
LINE
  5
435
100
AcDbEntity
  8
CIRCUIT
100
AcDbLine
 10
715.000
 20
484.000
 30
0.0
 11
715.000
 21
499.000
 31
0.0
  0
LINE
  5
436
100
AcDbEntity
  8
CIRCUIT
100
AcDbLine
 10
740.000
 20
484.000
 30
0.0
 11
740.000
 21
499.000
 31
0.0
  0
LINE
  5
437
100
AcDbEntity
  8
CIRCUIT
100
AcDbLine
 10
715.000
 20
464.000
 30
0.0
 11
715.000
 21
443.500
 31
0.0
  0
TEXT
  5
438
100
AcDbEntity
  8
CIRCUIT
100
AcDbText
 10
723.000
 20
453.750
 30
0.0
 40
4.32
  1
15
  7
STANDARD
 72
1
 11
723.000
 21
453.750
 31
0.0
100
AcDbText
 73
0
  0
LINE
  5
439
100
AcDbEntity
  8
CIRCUIT
100
AcDbLine
 10
740.000
 20
464.000
 30
0.0
 11
740.000
 21
443.500
 31
0.0
  0
TEXT
  5
43A
100
AcDbEntity
  8
CIRCUIT
100
AcDbText
 10
748.000
 20
453.750
 30
0.0
 40
4.32
  1
16
  7
STANDARD
 72
1
 11
748.000
 21
453.750
 31
0.0
100
AcDbText
 73
0
  0
LINE
  5
43B
100
AcDbEntity
  8
CIRCUIT
100
AcDbLine
 10
420.000
 20
434.000
 30
0.0
 11
420.000
 21
416.000
 31
0.0
  0
LINE
  5
43C
100
AcDbEntity
  8
CIRCUIT
100
AcDbLine
 10
420.000
 20
390.000
 30
0.0
 11
420.000
 21
363.000
 31
0.0
  0
TEXT
  5
43D
100
AcDbEntity
  8
CIRCUIT
100
AcDbText
 10
428.000
 20
381.500
 30
0.0
 40
4.32
  1
05
  7
STANDARD
 72
1
 11
428.000
 21
381.500
 31
0.0
100
AcDbText
 73
0
  0
LINE
  5
43E
100
AcDbEntity
  8
CIRCUIT
100
AcDbLine
 10
450.000
 20
434.000
 30
0.0
 11
450.000
 21
413.000
 31
0.0
  0
LINE
  5
43F
100
AcDbEntity
  8
CIRCUIT
100
AcDbLine
 10
450.000
 20
391.000
 30
0.0
 11
450.000
 21
375.000
 31
0.0
  0
LINE
  5
440
100
AcDbEntity
  8
CIRCUIT
100
AcDbLine
 10
420.000
 20
375.000
 30
0.0
 11
450.000
 21
375.000
 31
0.0
  0
LINE
  5
441
100
AcDbEntity
  8
CIRCUIT
100
AcDbLine
 10
420.000
 20
194.000
 30
0.0
 11
420.000
 21
207.000
 31
0.0
  0
LINE
  5
442
100
AcDbEntity
  8
CIRCUIT
100
AcDbLine
 10
420.000
 20
281.000
 30
0.0
 11
420.000
 21
269.000
 31
0.0
  0
TEXT
  5
443
100
AcDbEntity
  8
CIRCUIT
100
AcDbText
 10
428.000
 20
270.000
 30
0.0
 40
4.32
  1
07
  7
STANDARD
 72
1
 11
428.000
 21
270.000
 31
0.0
100
AcDbText
 73
0
  0
LINE
  5
444
100
AcDbEntity
  8
CIRCUIT
100
AcDbLine
 10
420.000
 20
249.000
 30
0.0
 11
420.000
 21
230.000
 31
0.0
  0
TEXT
  5
445
100
AcDbEntity
  8
CIRCUIT
100
AcDbText
 10
428.000
 20
239.500
 30
0.0
 40
4.32
  1
08
  7
STANDARD
 72
1
 11
428.000
 21
239.500
 31
0.0
100
AcDbText
 73
0
  0
LINE
  5
446
100
AcDbEntity
  8
CIRCUIT
100
AcDbLine
 10
480.000
 20
401.000
 30
0.0
 11
480.000
 21
228.000
 31
0.0
  0
TEXT
  5
447
100
AcDbEntity
  8
CIRCUIT
100
AcDbText
 10
488.000
 20
314.500
 30
0.0
 40
4.32
  1
09
  7
STANDARD
 72
1
 11
488.000
 21
314.500
 31
0.0
100
AcDbText
 73
0
  0
LINE
  5
448
100
AcDbEntity
  8
CIRCUIT
100
AcDbLine
 10
480.000
 20
464.000
 30
0.0
 11
480.000
 21
424.000
 31
0.0
  0
LINE
  5
449
100
AcDbEntity
  8
CIRCUIT
100
AcDbLine
 10
540.000
 20
309.000
 30
0.0
 11
540.000
 21
228.000
 31
0.0
  0
TEXT
  5
44A
100
AcDbEntity
  8
CIRCUIT
100
AcDbText
 10
548.000
 20
268.500
 30
0.0
 40
4.32
  1
12
  7
STANDARD
 72
1
 11
548.000
 21
268.500
 31
0.0
100
AcDbText
 73
0
  0
LINE
  5
44B
100
AcDbEntity
  8
CIRCUIT
100
AcDbLine
 10
540.000
 20
464.000
 30
0.0
 11
540.000
 21
424.000
 31
0.0
  0
LINE
  5
44C
100
AcDbEntity
  8
CIRCUIT
100
AcDbLine
 10
310.000
 20
434.000
 30
0.0
 11
325.000
 21
434.000
 31
0.0
  0
LINE
  5
44D
100
AcDbEntity
  8
CIRCUIT
100
AcDbLine
 10
311.000
 20
464.000
 30
0.0
 11
665.000
 21
464.000
 31
0.0
  0
LINE
  5
44E
100
AcDbEntity
  8
CIRCUIT
100
AcDbLine
 10
610.000
 20
464.000
 30
0.0
 11
610.000
 21
424.000
 31
0.0
  0
LINE
  5
44F
100
AcDbEntity
  8
CIRCUIT
100
AcDbLine
 10
665.000
 20
368.500
 30
0.0
 11
665.000
 21
229.000
 31
0.0
  0
TEXT
  5
450
100
AcDbEntity
  8
CIRCUIT
100
AcDbText
 10
673.000
 20
298.750
 30
0.0
 40
4.32
  1
14
  7
STANDARD
 72
1
 11
673.000
 21
298.750
 31
0.0
100
AcDbText
 73
0
  0
LINE
  5
451
100
AcDbEntity
  8
CIRCUIT
100
AcDbLine
 10
665.000
 20
209.000
 30
0.0
 11
665.000
 21
194.000
 31
0.0
  0
LINE
  5
452
100
AcDbEntity
  8
CIRCUIT
100
AcDbLine
 10
575.000
 20
464.000
 30
0.0
 11
575.000
 21
424.000
 31
0.0
  0
LINE
  5
453
100
AcDbEntity
  8
CIRCUIT
100
AcDbLine
 10
575.000
 20
401.000
 30
0.0
 11
575.000
 21
228.000
 31
0.0
  0
TEXT
  5
454
100
AcDbEntity
  8
CIRCUIT
100
AcDbText
 10
583.000
 20
314.500
 30
0.0
 40
4.32
  1
13
  7
STANDARD
 72
1
 11
583.000
 21
314.500
 31
0.0
100
AcDbText
 73
0
  0
LINE
  5
455
100
AcDbEntity
  8
CIRCUIT
100
AcDbLine
 10
510.000
 20
464.000
 30
0.0
 11
510.000
 21
424.000
 31
0.0
  0
LINE
  5
456
100
AcDbEntity
  8
CIRCUIT
100
AcDbLine
 10
510.000
 20
404.000
 30
0.0
 11
510.000
 21
364.000
 31
0.0
  0
LINE
  5
457
100
AcDbEntity
  8
CIRCUIT
100
AcDbLine
 10
510.000
 20
364.000
 30
0.0
 11
480.000
 21
364.000
 31
0.0
  0
LINE
  5
458
100
AcDbEntity
  8
CIRCUIT
100
AcDbLine
 10
540.000
 20
404.000
 30
0.0
 11
540.000
 21
379.000
 31
0.0
  0
TEXT
  5
459
100
AcDbEntity
  8
CIRCUIT
100
AcDbText
 10
548.000
 20
391.500
 30
0.0
 40
4.32
  1
10
  7
STANDARD
 72
1
 11
548.000
 21
391.500
 31
0.0
100
AcDbText
 73
0
  0
LINE
  5
45A
100
AcDbEntity
  8
CIRCUIT
100
AcDbLine
 10
665.000
 20
464.000
 30
0.0
 11
665.000
 21
444.000
 31
0.0
  0
LINE
  5
45B
100
AcDbEntity
  8
CIRCUIT
100
AcDbLine
 10
610.000
 20
399.000
 30
0.0
 11
610.000
 21
339.000
 31
0.0
  0
LINE
  5
45C
100
AcDbEntity
  8
CIRCUIT
100
AcDbLine
 10
665.000
 20
339.000
 30
0.0
 11
610.000
 21
339.000
 31
0.0
  0
LINE
  5
45D
100
AcDbEntity
  8
CIRCUIT
100
AcDbLine
 10
540.000
 20
359.000
 30
0.0
 11
540.000
 21
334.000
 31
0.0
  0
TEXT
  5
45E
100
AcDbEntity
  8
CIRCUIT
100
AcDbText
 10
548.000
 20
346.500
 30
0.0
 40
4.32
  1
11
  7
STANDARD
 72
1
 11
548.000
 21
346.500
 31
0.0
100
AcDbText
 73
0
  0
LINE
  5
45F
100
AcDbEntity
  8
CIRCUIT
100
AcDbLine
 10
360.000
 20
344.000
 30
0.0
 11
360.000
 21
327.000
 31
0.0
  0
TEXT
  5
460
100
AcDbEntity
  8
CIRCUIT
100
AcDbText
 10
368.000
 20
335.500
 30
0.0
 40
4.32
  1
02
  7
STANDARD
 72
1
 11
368.000
 21
335.500
 31
0.0
100
AcDbText
 73
0
  0
LINE
  5
461
100
AcDbEntity
  8
CIRCUIT
100
AcDbLine
 10
420.000
 20
344.000
 30
0.0
 11
420.000
 21
327.000
 31
0.0
  0
TEXT
  5
462
100
AcDbEntity
  8
CIRCUIT
100
AcDbText
 10
428.000
 20
335.500
 30
0.0
 40
4.32
  1
06
  7
STANDARD
 72
1
 11
428.000
 21
335.500
 31
0.0
100
AcDbText
 73
0
  0
LINE
  5
463
100
AcDbEntity
  8
CIRCUIT
100
AcDbLine
 10
360.000
 20
234.000
 30
0.0
 11
390.000
 21
234.000
 31
0.0
  0
LINE
  5
464
100
AcDbEntity
  8
CIRCUIT
100
AcDbLine
 10
390.000
 20
234.000
 30
0.0
 11
390.000
 21
229.000
 31
0.0
  0
LINE
  5
465
100
AcDbEntity
  8
CIRCUIT
100
AcDbLine
 10
420.000
 20
234.000
 30
0.0
 11
450.000
 21
234.000
 31
0.0
  0
LINE
  5
466
100
AcDbEntity
  8
CIRCUIT
100
AcDbLine
 10
450.000
 20
234.000
 30
0.0
 11
450.000
 21
229.000
 31
0.0
  0
LINE
  5
467
100
AcDbEntity
  8
CIRCUIT
100
AcDbLine
 10
390.000
 20
194.000
 30
0.0
 11
390.000
 21
207.000
 31
0.0
  0
LINE
  5
468
100
AcDbEntity
  8
CIRCUIT
100
AcDbLine
 10
450.000
 20
194.000
 30
0.0
 11
450.000
 21
207.000
 31
0.0
  0
LINE
  5
469
100
AcDbEntity
  8
CIRCUIT
100
AcDbLine
 10
360.000
 20
287.000
 30
0.0
 11
360.000
 21
294.000
 31
0.0
  0
LINE
  5
46A
100
AcDbEntity
  8
CIRCUIT
100
AcDbLine
 10
360.000
 20
314.000
 30
0.0
 11
360.000
 21
321.000
 31
0.0
  0
LINE
  5
46B
100
AcDbEntity
  8
CIRCUIT
100
AcDbLine
 10
420.000
 20
321.000
 30
0.0
 11
420.000
 21
314.000
 31
0.0
  0
LINE
  5
46C
100
AcDbEntity
  8
CIRCUIT
100
AcDbLine
 10
420.000
 20
294.000
 30
0.0
 11
420.000
 21
287.000
 31
0.0
  0
LINE
  5
46D
100
AcDbEntity
  8
CIRCUIT
100
AcDbLine
 10
90.000
 20
314.000
 30
0.0
 11
70.000
 21
314.000
 31
0.0
  0
LINE
  5
46E
100
AcDbEntity
  8
CIRCUIT
100
AcDbLine
 10
480.000
 20
212.155
 30
0.0
 11
480.000
 21
194.000
 31
0.0
  0
LINE
  5
46F
100
AcDbEntity
  8
CIRCUIT
100
AcDbLine
 10
540.000
 20
212.155
 30
0.0
 11
540.000
 21
194.000
 31
0.0
  0
LINE
  5
470
100
AcDbEntity
  8
CIRCUIT
100
AcDbLine
 10
575.000
 20
212.155
 30
0.0
 11
575.000
 21
194.000
 31
0.0
  0
LINE
  5
471
100
AcDbEntity
  8
CIRCUIT
100
AcDbLine
  6
DASHDOT
 10
40.000
 20
524.000
 30
0.0
 11
800.000
 21
524.000
 31
0.0
  0
LINE
  5
472
100
AcDbEntity
  8
CIRCUIT
100
AcDbLine
 10
170.000
 20
524.000
 30
0.0
 11
170.000
 21
524.000
 31
0.0
  0
CIRCLE
  5
473
100
AcDbEntity
  8
CIRCUIT
100
AcDbCircle
 10
100.000
 20
524.000
 30
0.0
 40
3.000
  0
TEXT
  5
474
100
AcDbEntity
  8
CIRCUIT
100
AcDbText
 10
107.000
 20
519.000
 30
0.0
 40
4.32
  1
1
  7
STANDARD
 72
1
 11
107.000
 21
519.000
 31
0.0
100
AcDbText
 73
0
  0
CIRCLE
  5
475
100
AcDbEntity
  8
CIRCUIT
100
AcDbCircle
 10
130.000
 20
524.000
 30
0.0
 40
3.000
  0
TEXT
  5
476
100
AcDbEntity
  8
CIRCUIT
100
AcDbText
 10
137.000
 20
519.000
 30
0.0
 40
4.32
  1
2
  7
STANDARD
 72
1
 11
137.000
 21
519.000
 31
0.0
100
AcDbText
 73
0
  0
CIRCLE
  5
477
100
AcDbEntity
  8
CIRCUIT
100
AcDbCircle
 10
160.000
 20
524.000
 30
0.0
 40
3.000
  0
TEXT
  5
478
100
AcDbEntity
  8
CIRCUIT
100
AcDbText
 10
167.000
 20
519.000
 30
0.0
 40
4.32
  1
3
  7
STANDARD
 72
1
 11
167.000
 21
519.000
 31
0.0
100
AcDbText
 73
0
  0
CIRCLE
  5
479
100
AcDbEntity
  8
CIRCUIT
100
AcDbCircle
 10
70.000
 20
524.000
 30
0.0
 40
3.000
  0
TEXT
  5
47A
100
AcDbEntity
  8
CIRCUIT
100
AcDbText
 10
77.000
 20
519.000
 30
0.0
 40
4.32
  1
4
  7
STANDARD
 72
1
 11
77.000
 21
519.000
 31
0.0
100
AcDbText
 73
0
  0
TEXT
  5
47B
100
AcDbEntity
  8
CIRCUIT
100
AcDbText
 10
55.000
 20
516.000
 30
0.0
 40
4.32
  1
TB1
  7
STANDARD
 72
1
 11
55.000
 21
516.000
 31
0.0
100
AcDbText
 73
0
  0
LINE
  5
47C
100
AcDbEntity
  8
CIRCUIT
100
AcDbLine
  6
DASHDOT
 10
40.000
 20
174.000
 30
0.0
 11
800.000
 21
174.000
 31
0.0
  0
CIRCLE
  5
47D
100
AcDbEntity
  8
CIRCUIT
100
AcDbCircle
 10
100.000
 20
174.000
 30
0.0
 40
3.000
  0
TEXT
  5
47E
100
AcDbEntity
  8
CIRCUIT
100
AcDbText
 10
107.000
 20
183.000
 30
0.0
 40
4.32
  1
1
  7
STANDARD
 72
1
 11
107.000
 21
183.000
 31
0.0
100
AcDbText
 73
0
  0
CIRCLE
  5
47F
100
AcDbEntity
  8
CIRCUIT
100
AcDbCircle
 10
130.000
 20
174.000
 30
0.0
 40
3.000
  0
TEXT
  5
480
100
AcDbEntity
  8
CIRCUIT
100
AcDbText
 10
137.000
 20
183.000
 30
0.0
 40
4.32
  1
2
  7
STANDARD
 72
1
 11
137.000
 21
183.000
 31
0.0
100
AcDbText
 73
0
  0
CIRCLE
  5
481
100
AcDbEntity
  8
CIRCUIT
100
AcDbCircle
 10
160.000
 20
174.000
 30
0.0
 40
3.000
  0
TEXT
  5
482
100
AcDbEntity
  8
CIRCUIT
100
AcDbText
 10
167.000
 20
183.000
 30
0.0
 40
4.32
  1
3
  7
STANDARD
 72
1
 11
167.000
 21
183.000
 31
0.0
100
AcDbText
 73
0
  0
CIRCLE
  5
483
100
AcDbEntity
  8
CIRCUIT
100
AcDbCircle
 10
70.000
 20
174.000
 30
0.0
 40
3.000
  0
TEXT
  5
484
100
AcDbEntity
  8
CIRCUIT
100
AcDbText
 10
77.000
 20
183.000
 30
0.0
 40
4.32
  1
4
  7
STANDARD
 72
1
 11
77.000
 21
183.000
 31
0.0
100
AcDbText
 73
0
  0
TEXT
  5
485
100
AcDbEntity
  8
CIRCUIT
100
AcDbText
 10
55.000
 20
179.000
 30
0.0
 40
4.32
  1
TB2
  7
STANDARD
 72
1
 11
55.000
 21
179.000
 31
0.0
100
AcDbText
 73
0
  0
TEXT
  5
486
100
AcDbEntity
  8
CIRCUIT
100
AcDbText
 10
99.000
 20
545.000
 30
0.0
 40
6.4799999999999995
  1
3ëäÅ@AC200V
  7
STANDARD
 72
0
 11
99.000
 21
545.000
 31
0.0
100
AcDbText
 73
0
  0
CIRCLE
  5
487
100
AcDbEntity
  8
CIRCUIT
100
AcDbCircle
 10
280.000
 20
524.000
 30
0.0
 40
3.000
  0
TEXT
  5
488
100
AcDbEntity
  8
CIRCUIT
100
AcDbText
 10
287.000
 20
519.000
 30
0.0
 40
4.32
  1
5
  7
STANDARD
 72
1
 11
287.000
 21
519.000
 31
0.0
100
AcDbText
 73
0
  0
CIRCLE
  5
489
100
AcDbEntity
  8
CIRCUIT
100
AcDbCircle
 10
310.000
 20
524.000
 30
0.0
 40
3.000
  0
TEXT
  5
48A
100
AcDbEntity
  8
CIRCUIT
100
AcDbText
 10
317.000
 20
519.000
 30
0.0
 40
4.32
  1
6
  7
STANDARD
 72
1
 11
317.000
 21
519.000
 31
0.0
100
AcDbText
 73
0
  0
TEXT
  5
48B
100
AcDbEntity
  8
CIRCUIT
100
AcDbText
 10
67.000
 20
533.000
 30
0.0
 40
7.199999999999999
  1
E
  7
STANDARD
 72
0
 11
67.000
 21
533.000
 31
0.0
100
AcDbText
 73
0
  0
TEXT
  5
48C
100
AcDbEntity
  8
CIRCUIT
100
AcDbText
 10
260.000
 20
545.000
 30
0.0
 40
6.4799999999999995
  1
íPëäÅ@AC100V
  7
STANDARD
 72
0
 11
260.000
 21
545.000
 31
0.0
100
AcDbText
 73
0
  0
LINE
  5
48D
100
AcDbEntity
  8
CIRCUIT
100
AcDbLine
  6
DASHDOT
 10
40.000
 20
524.000
 30
0.0
 11
40.000
 21
174.000
 31
0.0
  0
LINE
  5
48E
100
AcDbEntity
  8
CIRCUIT
100
AcDbLine
  6
DASHDOT
 10
800.000
 20
524.000
 30
0.0
 11
800.000
 21
174.000
 31
0.0
  0
INSERT
  5
48F
100
AcDbEntity
  8
CIRCUIT
100
AcDbBlockReference
  2
custom_msctfsfu_t61
 10
130.000
 20
141.000
 30
0.0
 50
0
 41
1
 42
1
 43
1.0
  0
TEXT
  5
490
100
AcDbEntity
  8
CIRCUIT
100
AcDbText
 10
170.000
 20
121.000
 30
0.0
 40
6.4799999999999995
  1
AC200V
  7
STANDARD
 72
0
 11
170.000
 21
121.000
 31
0.0
100
AcDbText
 73
0
  0
TEXT
  5
491
100
AcDbEntity
  8
CIRCUIT
100
AcDbText
 10
170.000
 20
110.000
 30
0.0
 40
6.4799999999999995
  1
0.4kW
  7
STANDARD
 72
0
 11
170.000
 21
110.000
 31
0.0
100
AcDbText
 73
0
  0
TEXT
  5
492
100
AcDbEntity
  8
CIRCUIT
100
AcDbText
 10
130.000
 20
121.000
 30
0.0
 40
7.92
  1
M
  7
STANDARD
 72
1
 11
130.000
 21
121.000
 31
0.0
100
AcDbText
 73
0
  0
HATCH
  5
493
100
AcDbEntity
  8
CIRCUIT
100
AcDbHatch
 10
0.0
 20
0.0
 30
0.0
210
0.0
220
0.0
230
1.0
  2
SOLID
 70
1
 71
0
 91
1
 92
1
 93
1
 72
2
 10
360.000
 20
434.000
 40
1.000
 50
0
 51
360
 73
1
 97
0
 75
1
 76
1
 98
0
  0
INSERT
  5
494
100
AcDbEntity
  8
CIRCUIT
100
AcDbBlockReference
  2
custom_msbxi3vy_u8w
 10
360.000
 20
403.000
 30
0.0
 50
0
 41
0.34439645029269905
 42
0.34439645029269905
 43
1.0
  0
TEXT
  5
495
100
AcDbEntity
  8
CIRCUIT
100
AcDbText
 10
365.000
 20
393.000
 30
0.0
 40
4.32
  1
è„è∏
  7
STANDARD
 72
0
 11
365.000
 21
393.000
 31
0.0
100
AcDbText
 73
0
  0
TEXT
  5
496
100
AcDbEntity
  8
CIRCUIT
100
AcDbText
 10
370.000
 20
403.000
 30
0.0
 40
4.32
  1
PB1
  7
STANDARD
 72
1
 11
370.000
 21
403.000
 31
0.0
100
AcDbText
 73
0
  0
INSERT
  5
497
100
AcDbEntity
  8
CIRCUIT
100
AcDbBlockReference
  2
custom_msbxnsrr_9fd
 10
360.000
 20
219.000
 30
0.0
 50
0
 41
0.29320578164550787
 42
0.29320578164550787
 43
1.0
  0
TEXT
  5
498
100
AcDbEntity
  8
CIRCUIT
100
AcDbText
 10
360.000
 20
219.000
 30
0.0
 40
5.04
  1
CR1
  7
STANDARD
 72
1
 11
360.000
 21
219.000
 31
0.0
100
AcDbText
 73
0
  0
TEXT
  5
499
100
AcDbEntity
  8
CIRCUIT
100
AcDbText
 10
352.000
 20
227.000
 30
0.0
 40
3.5999999999999996
  1
13
  7
STANDARD
 72
0
 11
352.000
 21
227.000
 31
0.0
100
AcDbText
 73
0
  0
TEXT
  5
49A
100
AcDbEntity
  8
CIRCUIT
100
AcDbText
 10
352.000
 20
205.000
 30
0.0
 40
3.5999999999999996
  1
14
  7
STANDARD
 72
0
 11
352.000
 21
205.000
 31
0.0
100
AcDbText
 73
0
  0
INSERT
  5
49B
100
AcDbEntity
  8
CIRCUIT
100
AcDbBlockReference
  2
custom_mryh1kfx_dlh
 10
390.000
 20
403.000
 30
0.0
 50
0
 41
0.4466220154377728
 42
0.4466220154377728
 43
1.0
  0
TEXT
  5
49C
100
AcDbEntity
  8
CIRCUIT
100
AcDbText
 10
400.000
 20
403.000
 30
0.0
 40
4.32
  1
CR1
  7
STANDARD
 72
1
 11
400.000
 21
403.000
 31
0.0
100
AcDbText
 73
0
  0
TEXT
  5
49D
100
AcDbEntity
  8
CIRCUIT
100
AcDbText
 10
386.000
 20
410.000
 30
0.0
 40
3.5999999999999996
  1
9
  7
STANDARD
 72
0
 11
386.000
 21
410.000
 31
0.0
100
AcDbText
 73
0
  0
TEXT
  5
49E
100
AcDbEntity
  8
CIRCUIT
100
AcDbText
 10
386.000
 20
390.000
 30
0.0
 40
3.5999999999999996
  1
5
  7
STANDARD
 72
0
 11
386.000
 21
390.000
 31
0.0
100
AcDbText
 73
0
  0
HATCH
  5
49F
100
AcDbEntity
  8
CIRCUIT
100
AcDbHatch
 10
0.0
 20
0.0
 30
0.0
210
0.0
220
0.0
230
1.0
  2
SOLID
 70
1
 71
0
 91
1
 92
1
 93
1
 72
2
 10
390.000
 20
434.000
 40
1.000
 50
0
 51
360
 73
1
 97
0
 75
1
 76
1
 98
0
  0
HATCH
  5
4A0
100
AcDbEntity
  8
CIRCUIT
100
AcDbHatch
 10
0.0
 20
0.0
 30
0.0
210
0.0
220
0.0
230
1.0
  2
SOLID
 70
1
 71
0
 91
1
 92
1
 93
1
 72
2
 10
420.000
 20
194.000
 40
1.000
 50
0
 51
360
 73
1
 97
0
 75
1
 76
1
 98
0
  0
HATCH
  5
4A1
100
AcDbEntity
  8
CIRCUIT
100
AcDbHatch
 10
0.0
 20
0.0
 30
0.0
210
0.0
220
0.0
230
1.0
  2
SOLID
 70
1
 71
0
 91
1
 92
1
 93
1
 72
2
 10
360.000
 20
375.000
 40
1.000
 50
0
 51
360
 73
1
 97
0
 75
1
 76
1
 98
0
  0
HATCH
  5
4A2
100
AcDbEntity
  8
CIRCUIT
100
AcDbHatch
 10
0.0
 20
0.0
 30
0.0
210
0.0
220
0.0
230
1.0
  2
SOLID
 70
1
 71
0
 91
1
 92
1
 93
1
 72
2
 10
420.000
 20
434.000
 40
1.000
 50
0
 51
360
 73
1
 97
0
 75
1
 76
1
 98
0
  0
LINE
  5
4A3
100
AcDbEntity
  8
CIRCUIT
100
AcDbLine
 10
420.000
 20
207.000
 30
0.0
 11
420.000
 21
194.000
 31
0.0
  0
HATCH
  5
4A4
100
AcDbEntity
  8
CIRCUIT
100
AcDbHatch
 10
0.0
 20
0.0
 30
0.0
210
0.0
220
0.0
230
1.0
  2
SOLID
 70
1
 71
0
 91
1
 92
1
 93
1
 72
2
 10
480.000
 20
194.000
 40
1.000
 50
0
 51
360
 73
1
 97
0
 75
1
 76
1
 98
0
  0
HATCH
  5
4A5
100
AcDbEntity
  8
CIRCUIT
100
AcDbHatch
 10
0.0
 20
0.0
 30
0.0
210
0.0
220
0.0
230
1.0
  2
SOLID
 70
1
 71
0
 91
1
 92
1
 93
1
 72
2
 10
480.000
 20
464.000
 40
1.000
 50
0
 51
360
 73
1
 97
0
 75
1
 76
1
 98
0
  0
INSERT
  5
4A6
100
AcDbEntity
  8
CIRCUIT
100
AcDbBlockReference
  2
custom_msc0tnf8_xh3
 10
575.000
 20
220.000
 30
0.0
 50
0
 41
0.26150771159412706
 42
0.26150771159412706
 43
1.0
  0
TEXT
  5
4A7
100
AcDbEntity
  8
CIRCUIT
100
AcDbText
 10
585.000
 20
220.000
 30
0.0
 40
5.04
  1
YL
  7
STANDARD
 72
1
 11
585.000
 21
220.000
 31
0.0
100
AcDbText
 73
0
  0
HATCH
  5
4A8
100
AcDbEntity
  8
CIRCUIT
100
AcDbHatch
 10
0.0
 20
0.0
 30
0.0
210
0.0
220
0.0
230
1.0
  2
SOLID
 70
1
 71
0
 91
1
 92
1
 93
1
 72
2
 10
540.000
 20
194.000
 40
1.000
 50
0
 51
360
 73
1
 97
0
 75
1
 76
1
 98
0
  0
INSERT
  5
4A9
100
AcDbEntity
  8
CIRCUIT
100
AcDbBlockReference
  2
custom_msc103jp_uzb
 10
360.000
 20
260.000
 30
0.0
 50
0
 41
0.31973327714577005
 42
0.31973327714577005
 43
1.0
  0
TEXT
  5
4AA
100
AcDbEntity
  8
CIRCUIT
100
AcDbText
 10
375.000
 20
260.000
 30
0.0
 40
4.32
  1
CR2
  7
STANDARD
 72
1
 11
375.000
 21
260.000
 31
0.0
100
AcDbText
 73
0
  0
TEXT
  5
4AB
100
AcDbEntity
  8
CIRCUIT
100
AcDbText
 10
353.000
 20
267.000
 30
0.0
 40
3.5999999999999996
  1
11
  7
STANDARD
 72
0
 11
353.000
 21
267.000
 31
0.0
100
AcDbText
 73
0
  0
TEXT
  5
4AC
100
AcDbEntity
  8
CIRCUIT
100
AcDbText
 10
354.000
 20
247.000
 30
0.0
 40
3.5999999999999996
  1
3
  7
STANDARD
 72
0
 11
354.000
 21
247.000
 31
0.0
100
AcDbText
 73
0
  0
HATCH
  5
4AD
100
AcDbEntity
  8
CIRCUIT
100
AcDbHatch
 10
0.0
 20
0.0
 30
0.0
210
0.0
220
0.0
230
1.0
  2
SOLID
 70
1
 71
0
 91
1
 92
1
 93
1
 72
2
 10
575.000
 20
194.000
 40
1.000
 50
0
 51
360
 73
1
 97
0
 75
1
 76
1
 98
0
  0
HATCH
  5
4AE
100
AcDbEntity
  8
CIRCUIT
100
AcDbHatch
 10
0.0
 20
0.0
 30
0.0
210
0.0
220
0.0
230
1.0
  2
SOLID
 70
1
 71
0
 91
1
 92
1
 93
1
 72
2
 10
540.000
 20
464.000
 40
1.000
 50
0
 51
360
 73
1
 97
0
 75
1
 76
1
 98
0
  0
TEXT
  5
4AF
100
AcDbEntity
  8
CIRCUIT
100
AcDbText
 10
469.000
 20
184.000
 30
0.0
 40
4.32
  1
â^ì]ï\é¶
  7
STANDARD
 72
0
 11
469.000
 21
184.000
 31
0.0
100
AcDbText
 73
0
  0
TEXT
  5
4B0
100
AcDbEntity
  8
CIRCUIT
100
AcDbText
 10
563.000
 20
184.000
 30
0.0
 40
4.32
  1
åÃè·ï\é¶
  7
STANDARD
 72
0
 11
563.000
 21
184.000
 31
0.0
100
AcDbText
 73
0
  0
INSERT
  5
4B1
100
AcDbEntity
  8
CIRCUIT
100
AcDbBlockReference
  2
custom_mryh1kfx_dlh
 10
715.000
 20
473.000
 30
0.0
 50
0
 41
0.4466220154377728
 42
0.4466220154377728
 43
1.0
  0
TEXT
  5
4B2
100
AcDbEntity
  8
CIRCUIT
100
AcDbText
 10
725.000
 20
473.000
 30
0.0
 40
4.32
  1
CR1A
  7
STANDARD
 72
1
 11
725.000
 21
473.000
 31
0.0
100
AcDbText
 73
0
  0
TEXT
  5
4B3
100
AcDbEntity
  8
CIRCUIT
100
AcDbText
 10
711.000
 20
480.000
 30
0.0
 40
3.5999999999999996
  1
9
  7
STANDARD
 72
0
 11
711.000
 21
480.000
 31
0.0
100
AcDbText
 73
0
  0
TEXT
  5
4B4
100
AcDbEntity
  8
CIRCUIT
100
AcDbText
 10
711.000
 20
460.000
 30
0.0
 40
3.5999999999999996
  1
5
  7
STANDARD
 72
0
 11
711.000
 21
460.000
 31
0.0
100
AcDbText
 73
0
  0
HATCH
  5
4B5
100
AcDbEntity
  8
CIRCUIT
100
AcDbHatch
 10
0.0
 20
0.0
 30
0.0
210
0.0
220
0.0
230
1.0
  2
SOLID
 70
1
 71
0
 91
1
 92
1
 93
1
 72
2
 10
715.000
 20
499.000
 40
1.000
 50
0
 51
360
 73
1
 97
0
 75
1
 76
1
 98
0
  0
INSERT
  5
4B6
100
AcDbEntity
  8
CIRCUIT
100
AcDbBlockReference
  2
custom_msbxi3vy_u8w
 10
420.000
 20
403.000
 30
0.0
 50
0
 41
0.34439645029269905
 42
0.34439645029269905
 43
1.0
  0
TEXT
  5
4B7
100
AcDbEntity
  8
CIRCUIT
100
AcDbText
 10
425.000
 20
393.000
 30
0.0
 40
4.32
  1
â∫ç~
  7
STANDARD
 72
0
 11
425.000
 21
393.000
 31
0.0
100
AcDbText
 73
0
  0
TEXT
  5
4B8
100
AcDbEntity
  8
CIRCUIT
100
AcDbText
 10
430.000
 20
403.000
 30
0.0
 40
4.32
  1
PB2
  7
STANDARD
 72
1
 11
430.000
 21
403.000
 31
0.0
100
AcDbText
 73
0
  0
INSERT
  5
4B9
100
AcDbEntity
  8
CIRCUIT
100
AcDbBlockReference
  2
custom_msbxnsrr_9fd
 10
420.000
 20
219.000
 30
0.0
 50
0
 41
0.29320578164550787
 42
0.29320578164550787
 43
1.0
  0
TEXT
  5
4BA
100
AcDbEntity
  8
CIRCUIT
100
AcDbText
 10
420.000
 20
219.000
 30
0.0
 40
5.04
  1
CR2
  7
STANDARD
 72
1
 11
420.000
 21
219.000
 31
0.0
100
AcDbText
 73
0
  0
TEXT
  5
4BB
100
AcDbEntity
  8
CIRCUIT
100
AcDbText
 10
412.000
 20
227.000
 30
0.0
 40
3.5999999999999996
  1
13
  7
STANDARD
 72
0
 11
412.000
 21
227.000
 31
0.0
100
AcDbText
 73
0
  0
TEXT
  5
4BC
100
AcDbEntity
  8
CIRCUIT
100
AcDbText
 10
412.000
 20
205.000
 30
0.0
 40
3.5999999999999996
  1
14
  7
STANDARD
 72
0
 11
412.000
 21
205.000
 31
0.0
100
AcDbText
 73
0
  0
INSERT
  5
4BD
100
AcDbEntity
  8
CIRCUIT
100
AcDbBlockReference
  2
custom_mryh1kfx_dlh
 10
450.000
 20
403.000
 30
0.0
 50
0
 41
0.4466220154377728
 42
0.4466220154377728
 43
1.0
  0
TEXT
  5
4BE
100
AcDbEntity
  8
CIRCUIT
100
AcDbText
 10
460.000
 20
403.000
 30
0.0
 40
4.32
  1
CR2
  7
STANDARD
 72
1
 11
460.000
 21
403.000
 31
0.0
100
AcDbText
 73
0
  0
TEXT
  5
4BF
100
AcDbEntity
  8
CIRCUIT
100
AcDbText
 10
446.000
 20
410.000
 30
0.0
 40
3.5999999999999996
  1
9
  7
STANDARD
 72
0
 11
446.000
 21
410.000
 31
0.0
100
AcDbText
 73
0
  0
TEXT
  5
4C0
100
AcDbEntity
  8
CIRCUIT
100
AcDbText
 10
446.000
 20
390.000
 30
0.0
 40
3.5999999999999996
  1
5
  7
STANDARD
 72
0
 11
446.000
 21
390.000
 31
0.0
100
AcDbText
 73
0
  0
HATCH
  5
4C1
100
AcDbEntity
  8
CIRCUIT
100
AcDbHatch
 10
0.0
 20
0.0
 30
0.0
210
0.0
220
0.0
230
1.0
  2
SOLID
 70
1
 71
0
 91
1
 92
1
 93
1
 72
2
 10
420.000
 20
375.000
 40
1.000
 50
0
 51
360
 73
1
 97
0
 75
1
 76
1
 98
0
  0
INSERT
  5
4C2
100
AcDbEntity
  8
CIRCUIT
100
AcDbBlockReference
  2
custom_msc103jp_uzb
 10
420.000
 20
260.000
 30
0.0
 50
0
 41
0.31973327714577005
 42
0.31973327714577005
 43
1.0
  0
TEXT
  5
4C3
100
AcDbEntity
  8
CIRCUIT
100
AcDbText
 10
435.000
 20
260.000
 30
0.0
 40
4.32
  1
CR1
  7
STANDARD
 72
1
 11
435.000
 21
260.000
 31
0.0
100
AcDbText
 73
0
  0
TEXT
  5
4C4
100
AcDbEntity
  8
CIRCUIT
100
AcDbText
 10
413.000
 20
267.000
 30
0.0
 40
3.5999999999999996
  1
11
  7
STANDARD
 72
0
 11
413.000
 21
267.000
 31
0.0
100
AcDbText
 73
0
  0
TEXT
  5
4C5
100
AcDbEntity
  8
CIRCUIT
100
AcDbText
 10
414.000
 20
247.000
 30
0.0
 40
3.5999999999999996
  1
3
  7
STANDARD
 72
0
 11
414.000
 21
247.000
 31
0.0
100
AcDbText
 73
0
  0
INSERT
  5
4C6
100
AcDbEntity
  8
CIRCUIT
100
AcDbBlockReference
  2
custom_msekru4r_trn
 10
360.000
 20
304.000
 30
0.0
 50
0
 41
0.3594667570422886
 42
0.3594667570422886
 43
1.0
  0
TEXT
  5
4C7
100
AcDbEntity
  8
CIRCUIT
100
AcDbText
 10
375.000
 20
289.000
 30
0.0
 40
4.32
  1
è„å¿
  7
STANDARD
 72
1
 11
375.000
 21
289.000
 31
0.0
100
AcDbText
 73
0
  0
TEXT
  5
4C8
100
AcDbEntity
  8
CIRCUIT
100
AcDbText
 10
370.000
 20
299.000
 30
0.0
 40
4.32
  1
LS1
  7
STANDARD
 72
1
 11
370.000
 21
299.000
 31
0.0
100
AcDbText
 73
0
  0
INSERT
  5
4C9
100
AcDbEntity
  8
CIRCUIT
100
AcDbBlockReference
  2
custom_msekru4r_trn
 10
420.000
 20
304.000
 30
0.0
 50
0
 41
0.3594667570422886
 42
0.3594667570422886
 43
1.0
  0
TEXT
  5
4CA
100
AcDbEntity
  8
CIRCUIT
100
AcDbText
 10
435.000
 20
289.000
 30
0.0
 40
4.32
  1
â∫å¿
  7
STANDARD
 72
1
 11
435.000
 21
289.000
 31
0.0
100
AcDbText
 73
0
  0
TEXT
  5
4CB
100
AcDbEntity
  8
CIRCUIT
100
AcDbText
 10
430.000
 20
299.000
 30
0.0
 40
4.32
  1
LS2
  7
STANDARD
 72
1
 11
430.000
 21
299.000
 31
0.0
100
AcDbText
 73
0
  0
INSERT
  5
4CC
100
AcDbEntity
  8
CIRCUIT
100
AcDbBlockReference
  2
custom_mryh1kfx_dlh
 10
480.000
 20
413.000
 30
0.0
 50
0
 41
0.4466220154377728
 42
0.4466220154377728
 43
1.0
  0
TEXT
  5
4CD
100
AcDbEntity
  8
CIRCUIT
100
AcDbText
 10
490.000
 20
413.000
 30
0.0
 40
4.32
  1
CR1
  7
STANDARD
 72
1
 11
490.000
 21
413.000
 31
0.0
100
AcDbText
 73
0
  0
TEXT
  5
4CE
100
AcDbEntity
  8
CIRCUIT
100
AcDbText
 10
473.000
 20
420.000
 30
0.0
 40
3.5999999999999996
  1
10
  7
STANDARD
 72
0
 11
473.000
 21
420.000
 31
0.0
100
AcDbText
 73
0
  0
TEXT
  5
4CF
100
AcDbEntity
  8
CIRCUIT
100
AcDbText
 10
474.000
 20
400.000
 30
0.0
 40
3.5999999999999996
  1
6
  7
STANDARD
 72
0
 11
474.000
 21
400.000
 31
0.0
100
AcDbText
 73
0
  0
INSERT
  5
4D0
100
AcDbEntity
  8
CIRCUIT
100
AcDbBlockReference
  2
custom_msc0tnf8_xh3
 10
480.000
 20
220.000
 30
0.0
 50
0
 41
0.26150771159412706
 42
0.26150771159412706
 43
1.0
  0
TEXT
  5
4D1
100
AcDbEntity
  8
CIRCUIT
100
AcDbText
 10
490.000
 20
220.000
 30
0.0
 40
5.04
  1
RL
  7
STANDARD
 72
1
 11
490.000
 21
220.000
 31
0.0
100
AcDbText
 73
0
  0
INSERT
  5
4D2
100
AcDbEntity
  8
CIRCUIT
100
AcDbBlockReference
  2
custom_msc0tnf8_xh3
 10
540.000
 20
220.000
 30
0.0
 50
0
 41
0.26150771159412706
 42
0.26150771159412706
 43
1.0
  0
TEXT
  5
4D3
100
AcDbEntity
  8
CIRCUIT
100
AcDbText
 10
550.000
 20
220.000
 30
0.0
 40
5.04
  1
GL
  7
STANDARD
 72
1
 11
550.000
 21
220.000
 31
0.0
100
AcDbText
 73
0
  0
TEXT
  5
4D4
100
AcDbEntity
  8
CIRCUIT
100
AcDbText
 10
528.000
 20
184.000
 30
0.0
 40
4.32
  1
í‚é~ï\é¶
  7
STANDARD
 72
0
 11
528.000
 21
184.000
 31
0.0
100
AcDbText
 73
0
  0
LINE
  5
4D5
100
AcDbEntity
  8
CIRCUIT
100
AcDbLine
  6
DASHDOT
 10
340.000
 20
324.000
 30
0.0
 11
450.000
 21
324.000
 31
0.0
  0
LINE
  5
4D6
100
AcDbEntity
  8
CIRCUIT
100
AcDbLine
  6
DASHDOT
 10
450.000
 20
324.000
 30
0.0
 11
450.000
 21
284.000
 31
0.0
  0
LINE
  5
4D7
100
AcDbEntity
  8
CIRCUIT
100
AcDbLine
  6
DASHDOT
 10
450.000
 20
284.000
 30
0.0
 11
340.000
 21
284.000
 31
0.0
  0
LINE
  5
4D8
100
AcDbEntity
  8
CIRCUIT
100
AcDbLine
  6
DASHDOT
 10
340.000
 20
284.000
 30
0.0
 11
340.000
 21
324.000
 31
0.0
  0
CIRCLE
  5
4D9
100
AcDbEntity
  8
CIRCUIT
100
AcDbCircle
 10
360.000
 20
324.000
 30
0.0
 40
3.000
  0
TEXT
  5
4DA
100
AcDbEntity
  8
CIRCUIT
100
AcDbText
 10
367.000
 20
330.000
 30
0.0
 40
4.32
  1
5
  7
STANDARD
 72
1
 11
367.000
 21
330.000
 31
0.0
100
AcDbText
 73
0
  0
TEXT
  5
4DB
100
AcDbEntity
  8
CIRCUIT
100
AcDbText
 10
345.000
 20
327.000
 30
0.0
 40
4.32
  1
TB2
  7
STANDARD
 72
1
 11
345.000
 21
327.000
 31
0.0
100
AcDbText
 73
0
  0
CIRCLE
  5
4DC
100
AcDbEntity
  8
CIRCUIT
100
AcDbCircle
 10
420.000
 20
324.000
 30
0.0
 40
3.000
  0
TEXT
  5
4DD
100
AcDbEntity
  8
CIRCUIT
100
AcDbText
 10
427.000
 20
330.000
 30
0.0
 40
4.32
  1
7
  7
STANDARD
 72
1
 11
427.000
 21
330.000
 31
0.0
100
AcDbText
 73
0
  0
CIRCLE
  5
4DE
100
AcDbEntity
  8
CIRCUIT
100
AcDbCircle
 10
360.000
 20
284.000
 30
0.0
 40
3.000
  0
TEXT
  5
4DF
100
AcDbEntity
  8
CIRCUIT
100
AcDbText
 10
367.000
 20
282.000
 30
0.0
 40
4.32
  1
6
  7
STANDARD
 72
1
 11
367.000
 21
282.000
 31
0.0
100
AcDbText
 73
0
  0
CIRCLE
  5
4E0
100
AcDbEntity
  8
CIRCUIT
100
AcDbCircle
 10
420.000
 20
284.000
 30
0.0
 40
3.000
  0
TEXT
  5
4E1
100
AcDbEntity
  8
CIRCUIT
100
AcDbText
 10
427.000
 20
282.000
 30
0.0
 40
4.32
  1
8
  7
STANDARD
 72
1
 11
427.000
 21
282.000
 31
0.0
100
AcDbText
 73
0
  0
INSERT
  5
4E2
100
AcDbEntity
  8
CIRCUIT
100
AcDbBlockReference
  2
custom_msemh9hr_ahw
 10
341.000
 20
434.000
 30
0.0
 50
0
 41
0.42197211657272427
 42
0.42197211657272427
 43
1.0
  0
TEXT
  5
4E3
100
AcDbEntity
  8
CIRCUIT
100
AcDbText
 10
361.000
 20
444.000
 30
0.0
 40
4.32
  1
îÒèÌí‚é~
  7
STANDARD
 72
1
 11
361.000
 21
444.000
 31
0.0
100
AcDbText
 73
0
  0
TEXT
  5
4E4
100
AcDbEntity
  8
CIRCUIT
100
AcDbText
 10
341.000
 20
444.000
 30
0.0
 40
4.32
  1
PB3
  7
STANDARD
 72
1
 11
341.000
 21
444.000
 31
0.0
100
AcDbText
 73
0
  0
HATCH
  5
4E5
100
AcDbEntity
  8
CIRCUIT
100
AcDbHatch
 10
0.0
 20
0.0
 30
0.0
210
0.0
220
0.0
230
1.0
  2
SOLID
 70
1
 71
0
 91
1
 92
1
 93
1
 72
2
 10
310.000
 20
464.000
 40
1.000
 50
0
 51
360
 73
1
 97
0
 75
1
 76
1
 98
0
  0
INSERT
  5
4E6
100
AcDbEntity
  8
CIRCUIT
100
AcDbBlockReference
  2
custom_msbxi3vy_u8w
 10
610.000
 20
413.000
 30
0.0
 50
0
 41
0.34439645029269905
 42
0.34439645029269905
 43
1.0
  0
TEXT
  5
4E7
100
AcDbEntity
  8
CIRCUIT
100
AcDbText
 10
615.000
 20
403.000
 30
0.0
 40
4.32
  1
îÒèÌí‚é~
  7
STANDARD
 72
0
 11
615.000
 21
403.000
 31
0.0
100
AcDbText
 73
0
  0
TEXT
  5
4E8
100
AcDbEntity
  8
CIRCUIT
100
AcDbText
 10
620.000
 20
413.000
 30
0.0
 40
4.32
  1
PB3
  7
STANDARD
 72
1
 11
620.000
 21
413.000
 31
0.0
100
AcDbText
 73
0
  0
HATCH
  5
4E9
100
AcDbEntity
  8
CIRCUIT
100
AcDbHatch
 10
0.0
 20
0.0
 30
0.0
210
0.0
220
0.0
230
1.0
  2
SOLID
 70
1
 71
0
 91
1
 92
1
 93
1
 72
2
 10
360.000
 20
194.000
 40
1.000
 50
0
 51
360
 73
1
 97
0
 75
1
 76
1
 98
0
  0
INSERT
  5
4EA
100
AcDbEntity
  8
CIRCUIT
100
AcDbBlockReference
  2
custom_mryh1kfx_dlh
 10
575.000
 20
413.000
 30
0.0
 50
0
 41
0.4466220154377728
 42
0.4466220154377728
 43
1.0
  0
TEXT
  5
4EB
100
AcDbEntity
  8
CIRCUIT
100
AcDbText
 10
585.000
 20
413.000
 30
0.0
 40
4.32
  1
CR3
  7
STANDARD
 72
1
 11
585.000
 21
413.000
 31
0.0
100
AcDbText
 73
0
  0
TEXT
  5
4EC
100
AcDbEntity
  8
CIRCUIT
100
AcDbText
 10
570.000
 20
420.000
 30
0.0
 40
3.5999999999999996
  1
9
  7
STANDARD
 72
0
 11
570.000
 21
420.000
 31
0.0
100
AcDbText
 73
0
  0
TEXT
  5
4ED
100
AcDbEntity
  8
CIRCUIT
100
AcDbText
 10
570.000
 20
400.000
 30
0.0
 40
3.5999999999999996
  1
5
  7
STANDARD
 72
0
 11
570.000
 21
400.000
 31
0.0
100
AcDbText
 73
0
  0
HATCH
  5
4EE
100
AcDbEntity
  8
CIRCUIT
100
AcDbHatch
 10
0.0
 20
0.0
 30
0.0
210
0.0
220
0.0
230
1.0
  2
SOLID
 70
1
 71
0
 91
1
 92
1
 93
1
 72
2
 10
575.000
 20
464.000
 40
1.000
 50
0
 51
360
 73
1
 97
0
 75
1
 76
1
 98
0
  0
HATCH
  5
4EF
100
AcDbEntity
  8
CIRCUIT
100
AcDbHatch
 10
0.0
 20
0.0
 30
0.0
210
0.0
220
0.0
230
1.0
  2
SOLID
 70
1
 71
0
 91
1
 92
1
 93
1
 72
2
 10
610.000
 20
464.000
 40
1.000
 50
0
 51
360
 73
1
 97
0
 75
1
 76
1
 98
0
  0
HATCH
  5
4F0
100
AcDbEntity
  8
CIRCUIT
100
AcDbHatch
 10
0.0
 20
0.0
 30
0.0
210
0.0
220
0.0
230
1.0
  2
SOLID
 70
1
 71
0
 91
1
 92
1
 93
1
 72
2
 10
665.000
 20
339.000
 40
1.000
 50
0
 51
360
 73
1
 97
0
 75
1
 76
1
 98
0
  0
INSERT
  5
4F1
100
AcDbEntity
  8
CIRCUIT
100
AcDbBlockReference
  2
custom_msbxnsrr_9fd
 10
665.000
 20
219.000
 30
0.0
 50
0
 41
0.29320578164550787
 42
0.29320578164550787
 43
1.0
  0
TEXT
  5
4F2
100
AcDbEntity
  8
CIRCUIT
100
AcDbText
 10
665.000
 20
219.000
 30
0.0
 40
5.04
  1
CR3
  7
STANDARD
 72
1
 11
665.000
 21
219.000
 31
0.0
100
AcDbText
 73
0
  0
TEXT
  5
4F3
100
AcDbEntity
  8
CIRCUIT
100
AcDbText
 10
657.000
 20
227.000
 30
0.0
 40
3.5999999999999996
  1
13
  7
STANDARD
 72
0
 11
657.000
 21
227.000
 31
0.0
100
AcDbText
 73
0
  0
TEXT
  5
4F4
100
AcDbEntity
  8
CIRCUIT
100
AcDbText
 10
657.000
 20
205.000
 30
0.0
 40
3.5999999999999996
  1
14
  7
STANDARD
 72
0
 11
657.000
 21
205.000
 31
0.0
100
AcDbText
 73
0
  0
INSERT
  5
4F5
100
AcDbEntity
  8
CIRCUIT
100
AcDbBlockReference
  2
custom_mryh1kfx_dlh
 10
510.000
 20
413.000
 30
0.0
 50
0
 41
0.4466220154377728
 42
0.4466220154377728
 43
1.0
  0
TEXT
  5
4F6
100
AcDbEntity
  8
CIRCUIT
100
AcDbText
 10
520.000
 20
413.000
 30
0.0
 40
4.32
  1
CR2
  7
STANDARD
 72
1
 11
520.000
 21
413.000
 31
0.0
100
AcDbText
 73
0
  0
TEXT
  5
4F7
100
AcDbEntity
  8
CIRCUIT
100
AcDbText
 10
503.000
 20
420.000
 30
0.0
 40
3.5999999999999996
  1
10
  7
STANDARD
 72
0
 11
503.000
 21
420.000
 31
0.0
100
AcDbText
 73
0
  0
TEXT
  5
4F8
100
AcDbEntity
  8
CIRCUIT
100
AcDbText
 10
504.000
 20
400.000
 30
0.0
 40
3.5999999999999996
  1
6
  7
STANDARD
 72
0
 11
504.000
 21
400.000
 31
0.0
100
AcDbText
 73
0
  0
HATCH
  5
4F9
100
AcDbEntity
  8
CIRCUIT
100
AcDbHatch
 10
0.0
 20
0.0
 30
0.0
210
0.0
220
0.0
230
1.0
  2
SOLID
 70
1
 71
0
 91
1
 92
1
 93
1
 72
2
 10
510.000
 20
464.000
 40
1.000
 50
0
 51
360
 73
1
 97
0
 75
1
 76
1
 98
0
  0
HATCH
  5
4FA
100
AcDbEntity
  8
CIRCUIT
100
AcDbHatch
 10
0.0
 20
0.0
 30
0.0
210
0.0
220
0.0
230
1.0
  2
SOLID
 70
1
 71
0
 91
1
 92
1
 93
1
 72
2
 10
480.000
 20
364.000
 40
1.000
 50
0
 51
360
 73
1
 97
0
 75
1
 76
1
 98
0
  0
INSERT
  5
4FB
100
AcDbEntity
  8
CIRCUIT
100
AcDbBlockReference
  2
custom_msc103jp_uzb
 10
540.000
 20
413.000
 30
0.0
 50
0
 41
0.31973327714577005
 42
0.31973327714577005
 43
1.0
  0
TEXT
  5
4FC
100
AcDbEntity
  8
CIRCUIT
100
AcDbText
 10
555.000
 20
413.000
 30
0.0
 40
4.32
  1
CR1
  7
STANDARD
 72
1
 11
555.000
 21
413.000
 31
0.0
100
AcDbText
 73
0
  0
TEXT
  5
4FD
100
AcDbEntity
  8
CIRCUIT
100
AcDbText
 10
533.000
 20
420.000
 30
0.0
 40
3.5999999999999996
  1
10
  7
STANDARD
 72
0
 11
533.000
 21
420.000
 31
0.0
100
AcDbText
 73
0
  0
TEXT
  5
4FE
100
AcDbEntity
  8
CIRCUIT
100
AcDbText
 10
534.000
 20
400.000
 30
0.0
 40
3.5999999999999996
  1
2
  7
STANDARD
 72
0
 11
534.000
 21
400.000
 31
0.0
100
AcDbText
 73
0
  0
INSERT
  5
4FF
100
AcDbEntity
  8
CIRCUIT
100
AcDbBlockReference
  2
custom_msc103jp_uzb
 10
540.000
 20
367.000
 30
0.0
 50
0
 41
0.31973327714577005
 42
0.31973327714577005
 43
1.0
  0
TEXT
  5
500
100
AcDbEntity
  8
CIRCUIT
100
AcDbText
 10
555.000
 20
367.000
 30
0.0
 40
4.32
  1
CR2
  7
STANDARD
 72
1
 11
555.000
 21
367.000
 31
0.0
100
AcDbText
 73
0
  0
TEXT
  5
501
100
AcDbEntity
  8
CIRCUIT
100
AcDbText
 10
533.000
 20
374.000
 30
0.0
 40
3.5999999999999996
  1
12
  7
STANDARD
 72
0
 11
533.000
 21
374.000
 31
0.0
100
AcDbText
 73
0
  0
TEXT
  5
502
100
AcDbEntity
  8
CIRCUIT
100
AcDbText
 10
534.000
 20
354.000
 30
0.0
 40
3.5999999999999996
  1
4
  7
STANDARD
 72
0
 11
534.000
 21
354.000
 31
0.0
100
AcDbText
 73
0
  0
INSERT
  5
503
100
AcDbEntity
  8
CIRCUIT
100
AcDbBlockReference
  2
custom_msc103jp_uzb
 10
540.000
 20
322.000
 30
0.0
 50
0
 41
0.31973327714577005
 42
0.31973327714577005
 43
1.0
  0
TEXT
  5
504
100
AcDbEntity
  8
CIRCUIT
100
AcDbText
 10
555.000
 20
322.000
 30
0.0
 40
4.32
  1
CR3
  7
STANDARD
 72
1
 11
555.000
 21
322.000
 31
0.0
100
AcDbText
 73
0
  0
TEXT
  5
505
100
AcDbEntity
  8
CIRCUIT
100
AcDbText
 10
533.000
 20
329.000
 30
0.0
 40
3.5999999999999996
  1
12
  7
STANDARD
 72
0
 11
533.000
 21
329.000
 31
0.0
100
AcDbText
 73
0
  0
TEXT
  5
506
100
AcDbEntity
  8
CIRCUIT
100
AcDbText
 10
534.000
 20
309.000
 30
0.0
 40
3.5999999999999996
  1
4
  7
STANDARD
 72
0
 11
534.000
 21
309.000
 31
0.0
100
AcDbText
 73
0
  0
INSERT
  5
507
100
AcDbEntity
  8
CIRCUIT
100
AcDbBlockReference
  2
custom_msc103jp_uzb
 10
360.000
 20
354.000
 30
0.0
 50
0
 41
0.31973327714577005
 42
0.31973327714577005
 43
1.0
  0
TEXT
  5
508
100
AcDbEntity
  8
CIRCUIT
100
AcDbText
 10
375.000
 20
354.000
 30
0.0
 40
4.32
  1
CR3
  7
STANDARD
 72
1
 11
375.000
 21
354.000
 31
0.0
100
AcDbText
 73
0
  0
TEXT
  5
509
100
AcDbEntity
  8
CIRCUIT
100
AcDbText
 10
353.000
 20
361.000
 30
0.0
 40
3.5999999999999996
  1
10
  7
STANDARD
 72
0
 11
353.000
 21
361.000
 31
0.0
100
AcDbText
 73
0
  0
TEXT
  5
50A
100
AcDbEntity
  8
CIRCUIT
100
AcDbText
 10
356.000
 20
341.000
 30
0.0
 40
3.5999999999999996
  1
2
  7
STANDARD
 72
0
 11
356.000
 21
341.000
 31
0.0
100
AcDbText
 73
0
  0
INSERT
  5
50B
100
AcDbEntity
  8
CIRCUIT
100
AcDbBlockReference
  2
custom_msc103jp_uzb
 10
420.000
 20
354.000
 30
0.0
 50
0
 41
0.31973327714577005
 42
0.31973327714577005
 43
1.0
  0
TEXT
  5
50C
100
AcDbEntity
  8
CIRCUIT
100
AcDbText
 10
435.000
 20
354.000
 30
0.0
 40
4.32
  1
CR3
  7
STANDARD
 72
1
 11
435.000
 21
354.000
 31
0.0
100
AcDbText
 73
0
  0
TEXT
  5
50D
100
AcDbEntity
  8
CIRCUIT
100
AcDbText
 10
413.000
 20
361.000
 30
0.0
 40
3.5999999999999996
  1
11
  7
STANDARD
 72
0
 11
413.000
 21
361.000
 31
0.0
100
AcDbText
 73
0
  0
TEXT
  5
50E
100
AcDbEntity
  8
CIRCUIT
100
AcDbText
 10
416.000
 20
341.000
 30
0.0
 40
3.5999999999999996
  1
3
  7
STANDARD
 72
0
 11
416.000
 21
341.000
 31
0.0
100
AcDbText
 73
0
  0
INSERT
  5
50F
100
AcDbEntity
  8
CIRCUIT
100
AcDbBlockReference
  2
custom_msbxnsrr_9fd
 10
390.000
 20
219.000
 30
0.0
 50
0
 41
0.29320578164550787
 42
0.29320578164550787
 43
1.0
  0
TEXT
  5
510
100
AcDbEntity
  8
CIRCUIT
100
AcDbText
 10
390.000
 20
219.000
 30
0.0
 40
5.04
  1
CR1A
  7
STANDARD
 72
1
 11
390.000
 21
219.000
 31
0.0
100
AcDbText
 73
0
  0
TEXT
  5
511
100
AcDbEntity
  8
CIRCUIT
100
AcDbText
 10
382.000
 20
227.000
 30
0.0
 40
3.5999999999999996
  1
13
  7
STANDARD
 72
0
 11
382.000
 21
227.000
 31
0.0
100
AcDbText
 73
0
  0
TEXT
  5
512
100
AcDbEntity
  8
CIRCUIT
100
AcDbText
 10
382.000
 20
205.000
 30
0.0
 40
3.5999999999999996
  1
14
  7
STANDARD
 72
0
 11
382.000
 21
205.000
 31
0.0
100
AcDbText
 73
0
  0
INSERT
  5
513
100
AcDbEntity
  8
CIRCUIT
100
AcDbBlockReference
  2
custom_msbxnsrr_9fd
 10
450.000
 20
219.000
 30
0.0
 50
0
 41
0.29320578164550787
 42
0.29320578164550787
 43
1.0
  0
TEXT
  5
514
100
AcDbEntity
  8
CIRCUIT
100
AcDbText
 10
450.000
 20
219.000
 30
0.0
 40
5.04
  1
CR2A
  7
STANDARD
 72
1
 11
450.000
 21
219.000
 31
0.0
100
AcDbText
 73
0
  0
TEXT
  5
515
100
AcDbEntity
  8
CIRCUIT
100
AcDbText
 10
442.000
 20
227.000
 30
0.0
 40
3.5999999999999996
  1
13
  7
STANDARD
 72
0
 11
442.000
 21
227.000
 31
0.0
100
AcDbText
 73
0
  0
TEXT
  5
516
100
AcDbEntity
  8
CIRCUIT
100
AcDbText
 10
442.000
 20
205.000
 30
0.0
 40
3.5999999999999996
  1
14
  7
STANDARD
 72
0
 11
442.000
 21
205.000
 31
0.0
100
AcDbText
 73
0
  0
HATCH
  5
517
100
AcDbEntity
  8
CIRCUIT
100
AcDbHatch
 10
0.0
 20
0.0
 30
0.0
210
0.0
220
0.0
230
1.0
  2
SOLID
 70
1
 71
0
 91
1
 92
1
 93
1
 72
2
 10
390.000
 20
194.000
 40
1.000
 50
0
 51
360
 73
1
 97
0
 75
1
 76
1
 98
0
  0
HATCH
  5
518
100
AcDbEntity
  8
CIRCUIT
100
AcDbHatch
 10
0.0
 20
0.0
 30
0.0
210
0.0
220
0.0
230
1.0
  2
SOLID
 70
1
 71
0
 91
1
 92
1
 93
1
 72
2
 10
450.000
 20
194.000
 40
1.000
 50
0
 51
360
 73
1
 97
0
 75
1
 76
1
 98
0
  0
HATCH
  5
519
100
AcDbEntity
  8
CIRCUIT
100
AcDbHatch
 10
0.0
 20
0.0
 30
0.0
210
0.0
220
0.0
230
1.0
  2
SOLID
 70
1
 71
0
 91
1
 92
1
 93
1
 72
2
 10
420.000
 20
234.000
 40
1.000
 50
0
 51
360
 73
1
 97
0
 75
1
 76
1
 98
0
  0
HATCH
  5
51A
100
AcDbEntity
  8
CIRCUIT
100
AcDbHatch
 10
0.0
 20
0.0
 30
0.0
210
0.0
220
0.0
230
1.0
  2
SOLID
 70
1
 71
0
 91
1
 92
1
 93
1
 72
2
 10
360.000
 20
234.000
 40
1.000
 50
0
 51
360
 73
1
 97
0
 75
1
 76
1
 98
0
  0
INSERT
  5
51B
100
AcDbEntity
  8
CIRCUIT
100
AcDbBlockReference
  2
custom_mryh1kfx_dlh
 10
740.000
 20
473.000
 30
0.0
 50
0
 41
0.4466220154377728
 42
0.4466220154377728
 43
1.0
  0
TEXT
  5
51C
100
AcDbEntity
  8
CIRCUIT
100
AcDbText
 10
750.000
 20
473.000
 30
0.0
 40
4.32
  1
CR2A
  7
STANDARD
 72
1
 11
750.000
 21
473.000
 31
0.0
100
AcDbText
 73
0
  0
TEXT
  5
51D
100
AcDbEntity
  8
CIRCUIT
100
AcDbText
 10
736.000
 20
480.000
 30
0.0
 40
3.5999999999999996
  1
9
  7
STANDARD
 72
0
 11
736.000
 21
480.000
 31
0.0
100
AcDbText
 73
0
  0
TEXT
  5
51E
100
AcDbEntity
  8
CIRCUIT
100
AcDbText
 10
736.000
 20
460.000
 30
0.0
 40
3.5999999999999996
  1
5
  7
STANDARD
 72
0
 11
736.000
 21
460.000
 31
0.0
100
AcDbText
 73
0
  0
INSERT
  5
51F
100
AcDbEntity
  8
CIRCUIT
100
AcDbBlockReference
  2
custom_mt57stff_0vh
 10
290.000
 20
484.000
 30
0.0
 50
0
 41
1
 42
1
 43
1.0
  0
TEXT
  5
520
100
AcDbEntity
  8
CIRCUIT
100
AcDbText
 10
320.000
 20
479.000
 30
0.0
 40
5.04
  1
CP30-BA 2P 5A
  7
STANDARD
 72
0
 11
320.000
 21
479.000
 31
0.0
100
AcDbText
 73
0
  0
TEXT
  5
521
100
AcDbEntity
  8
CIRCUIT
100
AcDbText
 10
325.000
 20
489.000
 30
0.0
 40
5.04
  1
CP1
  7
STANDARD
 72
1
 11
325.000
 21
489.000
 31
0.0
100
AcDbText
 73
0
  0
TEXT
  5
522
100
AcDbEntity
  8
CIRCUIT
100
AcDbText
 10
304.000
 20
469.000
 30
0.0
 40
3.5999999999999996
  1
4
  7
STANDARD
 72
0
 11
304.000
 21
469.000
 31
0.0
100
AcDbText
 73
0
  0
TEXT
  5
523
100
AcDbEntity
  8
CIRCUIT
100
AcDbText
 10
304.000
 20
492.000
 30
0.0
 40
3.5999999999999996
  1
3
  7
STANDARD
 72
0
 11
304.000
 21
492.000
 31
0.0
100
AcDbText
 73
0
  0
TEXT
  5
524
100
AcDbEntity
  8
CIRCUIT
100
AcDbText
 10
274.000
 20
469.000
 30
0.0
 40
3.5999999999999996
  1
2
  7
STANDARD
 72
0
 11
274.000
 21
469.000
 31
0.0
100
AcDbText
 73
0
  0
TEXT
  5
525
100
AcDbEntity
  8
CIRCUIT
100
AcDbText
 10
274.000
 20
492.000
 30
0.0
 40
3.5999999999999996
  1
1
  7
STANDARD
 72
0
 11
274.000
 21
492.000
 31
0.0
100
AcDbText
 73
0
  0
HATCH
  5
526
100
AcDbEntity
  8
CIRCUIT
100
AcDbHatch
 10
0.0
 20
0.0
 30
0.0
210
0.0
220
0.0
230
1.0
  2
SOLID
 70
1
 71
0
 91
1
 92
1
 93
1
 72
2
 10
70.000
 20
314.000
 40
2.000
 50
0
 51
360
 73
1
 97
0
 75
1
 76
1
 98
0
  0
INSERT
  5
527
100
AcDbEntity
  8
CIRCUIT
100
AcDbBlockReference
  2
custom_muajd69w_hi7
 10
130.000
 20
314.000
 30
0.0
 50
0
 41
1
 42
1
 43
1.0
  0
TEXT
  5
528
100
AcDbEntity
  8
CIRCUIT
100
AcDbText
 10
185.000
 20
319.000
 30
0.0
 40
5.04
  1
éOëä200V
  7
STANDARD
 72
0
 11
185.000
 21
319.000
 31
0.0
100
AcDbText
 73
0
  0
TEXT
  5
529
100
AcDbEntity
  8
CIRCUIT
100
AcDbText
 10
185.000
 20
310.000
 30
0.0
 40
5.04
  1
0.4kW
  7
STANDARD
 72
0
 11
185.000
 21
310.000
 31
0.0
100
AcDbText
 73
0
  0
TEXT
  5
52A
100
AcDbEntity
  8
CIRCUIT
100
AcDbText
 10
205.000
 20
329.000
 30
0.0
 40
5.76
  1
FR-D720-0.4K
  7
STANDARD
 72
1
 11
205.000
 21
329.000
 31
0.0
100
AcDbText
 73
0
  0
TEXT
  5
52B
100
AcDbEntity
  8
CIRCUIT
100
AcDbText
 10
130.000
 20
309.000
 30
0.0
 40
7.92
  1
INV
  7
STANDARD
 72
1
 11
130.000
 21
309.000
 31
0.0
100
AcDbText
 73
0
  0
TEXT
  5
52C
100
AcDbEntity
  8
CIRCUIT
100
AcDbText
 10
104.000
 20
336.000
 30
0.0
 40
3.5999999999999996
  1
R/L1
  7
STANDARD
 72
0
 11
104.000
 21
336.000
 31
0.0
100
AcDbText
 73
0
  0
TEXT
  5
52D
100
AcDbEntity
  8
CIRCUIT
100
AcDbText
 10
134.000
 20
336.000
 30
0.0
 40
3.5999999999999996
  1
S/L2
  7
STANDARD
 72
0
 11
134.000
 21
336.000
 31
0.0
100
AcDbText
 73
0
  0
TEXT
  5
52E
100
AcDbEntity
  8
CIRCUIT
100
AcDbText
 10
164.000
 20
336.000
 30
0.0
 40
3.5999999999999996
  1
T/L3
  7
STANDARD
 72
0
 11
164.000
 21
336.000
 31
0.0
100
AcDbText
 73
0
  0
TEXT
  5
52F
100
AcDbEntity
  8
CIRCUIT
100
AcDbText
 10
104.000
 20
296.000
 30
0.0
 40
3.5999999999999996
  1
U
  7
STANDARD
 72
0
 11
104.000
 21
296.000
 31
0.0
100
AcDbText
 73
0
  0
TEXT
  5
530
100
AcDbEntity
  8
CIRCUIT
100
AcDbText
 10
134.000
 20
296.000
 30
0.0
 40
3.5999999999999996
  1
V
  7
STANDARD
 72
0
 11
134.000
 21
296.000
 31
0.0
100
AcDbText
 73
0
  0
TEXT
  5
531
100
AcDbEntity
  8
CIRCUIT
100
AcDbText
 10
164.000
 20
296.000
 30
0.0
 40
3.5999999999999996
  1
W
  7
STANDARD
 72
0
 11
164.000
 21
296.000
 31
0.0
100
AcDbText
 73
0
  0
TEXT
  5
532
100
AcDbEntity
  8
CIRCUIT
100
AcDbText
 10
94.000
 20
316.000
 30
0.0
 40
3.5999999999999996
  1
PE
  7
STANDARD
 72
0
 11
94.000
 21
316.000
 31
0.0
100
AcDbText
 73
0
  0
INSERT
  5
533
100
AcDbEntity
  8
CIRCUIT
100
AcDbBlockReference
  2
custom_muc0o9zb_dgj
 10
130.000
 20
464.000
 30
0.0
 50
0
 41
1
 42
1
 43
1.0
  0
INSERT
  5
534
100
AcDbEntity
  8
CIRCUIT
100
AcDbBlockReference
  2
custom_mueugeai_v8q
 10
700.000
 20
406.000
 30
0.0
 50
0
 41
1
 42
1
 43
1.0
  0
TEXT
  5
535
100
AcDbEntity
  8
CIRCUIT
100
AcDbText
 10
725.000
 20
376.000
 30
0.0
 40
5.04
  1
FR-D720-0.4K
  7
STANDARD
 72
1
 11
725.000
 21
376.000
 31
0.0
100
AcDbText
 73
0
  0
TEXT
  5
536
100
AcDbEntity
  8
CIRCUIT
100
AcDbText
 10
735.000
 20
386.000
 30
0.0
 40
7.92
  1
INV
  7
STANDARD
 72
1
 11
735.000
 21
386.000
 31
0.0
100
AcDbText
 73
0
  0
TEXT
  5
537
100
AcDbEntity
  8
CIRCUIT
100
AcDbText
 10
694.000
 20
435.500
 30
0.0
 40
3.5999999999999996
  1
SD
  7
STANDARD
 72
0
 11
694.000
 21
435.500
 31
0.0
100
AcDbText
 73
0
  0
TEXT
  5
538
100
AcDbEntity
  8
CIRCUIT
100
AcDbText
 10
719.000
 20
435.500
 30
0.0
 40
3.5999999999999996
  1
STF
  7
STANDARD
 72
0
 11
719.000
 21
435.500
 31
0.0
100
AcDbText
 73
0
  0
TEXT
  5
539
100
AcDbEntity
  8
CIRCUIT
100
AcDbText
 10
744.000
 20
435.500
 30
0.0
 40
3.5999999999999996
  1
STR
  7
STANDARD
 72
0
 11
744.000
 21
435.500
 31
0.0
100
AcDbText
 73
0
  0
TEXT
  5
53A
100
AcDbEntity
  8
CIRCUIT
100
AcDbText
 10
669.000
 20
435.500
 30
0.0
 40
3.5999999999999996
  1
C
  7
STANDARD
 72
0
 11
669.000
 21
435.500
 31
0.0
100
AcDbText
 73
0
  0
TEXT
  5
53B
100
AcDbEntity
  8
CIRCUIT
100
AcDbText
 10
669.000
 20
370.500
 30
0.0
 40
3.5999999999999996
  1
A
  7
STANDARD
 72
0
 11
669.000
 21
370.500
 31
0.0
100
AcDbText
 73
0
  0
TEXT
  5
53C
100
AcDbEntity
  8
CIRCUIT
100
AcDbText
 10
669.000
 20
405.000
 30
0.0
 40
5.76
  1
ALM
  7
STANDARD
 72
0
 11
669.000
 21
405.000
 31
0.0
100
AcDbText
 73
0
  0
ENDSEC
  0
SECTION
  2
OBJECTS
  0
DICTIONARY
  5
21D
330
0
100
AcDbDictionary
281
1
  3
ACAD_COLOR
350
21F
  3
ACAD_GROUP
350
21E
  3
ACAD_LAYOUT
350
220
  3
ACAD_MATERIAL
350
221
  3
ACAD_MLEADERSTYLE
350
222
  3
ACAD_MLINESTYLE
350
223
  3
ACAD_PLOTSETTINGS
350
224
  3
ACAD_PLOTSTYLENAME
350
225
  3
ACAD_SCALELIST
350
227
  3
ACAD_TABLESTYLE
350
228
  3
ACAD_VISUALSTYLE
350
229
  0
DICTIONARY
  5
21E
330
21D
100
AcDbDictionary
281
1
  0
DICTIONARY
  5
21F
330
21D
100
AcDbDictionary
281
1
  0
DICTIONARY
  5
221
330
21D
100
AcDbDictionary
281
1
  0
DICTIONARY
  5
222
330
21D
100
AcDbDictionary
281
1
  0
DICTIONARY
  5
223
330
21D
100
AcDbDictionary
281
1
  0
DICTIONARY
  5
224
330
21D
100
AcDbDictionary
281
1
  0
DICTIONARY
  5
227
330
21D
100
AcDbDictionary
281
1
  0
DICTIONARY
  5
228
330
21D
100
AcDbDictionary
281
1
  0
DICTIONARY
  5
229
330
21D
100
AcDbDictionary
281
1
  0
ACDBDICTIONARYWDFLT
  5
225
330
21D
100
AcDbDictionary
281
1
  3
Normal
350
226
100
AcDbDictionaryWithDefault
340
226
  0
ACDBPLACEHOLDER
  5
226
330
225
  0
DICTIONARY
  5
220
330
21D
100
AcDbDictionary
281
1
  3
Model
350
22A
  3
Layout1
350
22B
  0
LAYOUT
  5
22A
330
220
100
AcDbPlotSettings
  1

  2

  4
A3
  6

 40
7.5
 41
20.0
 42
7.5
 43
20.0
 44
420.0
 45
297.0
 46
0.0
 47
0.0
 48
0.0
 49
0.0
140
0.0
141
0.0
142
1.0
143
1.0
 70
1024
 72
1
 73
0
 74
5
  7

 75
16
 76
0
 77
2
 78
300
147
1.0
148
0.0
149
0.0
100
AcDbLayout
  1
Model
 70
1
 71
0
 10
0.0
 20
0.0
 11
420.0
 21
297.0
 12
0.0
 22
0.0
 32
0.0
 14
1e+20
 24
1e+20
 34
1e+20
 15
-1e+20
 25
-1e+20
 35
-1e+20
146
0.0
 13
0.0
 23
0.0
 33
0.0
 16
1.0
 26
0.0
 36
0.0
 17
0.0
 27
1.0
 37
0.0
 76
1
330
21B
  0
LAYOUT
  5
22B
330
220
100
AcDbPlotSettings
  1

  2

  4
A3
  6

 40
7.5
 41
20.0
 42
7.5
 43
20.0
 44
420.0
 45
297.0
 46
0.0
 47
0.0
 48
0.0
 49
0.0
140
0.0
141
0.0
142
1.0
143
1.0
 70
0
 72
1
 73
0
 74
5
  7

 75
16
 76
0
 77
2
 78
300
147
1.0
148
0.0
149
0.0
100
AcDbLayout
  1
Layout1
 70
1
 71
1
 10
0.0
 20
0.0
 11
420.0
 21
297.0
 12
0.0
 22
0.0
 32
0.0
 14
1e+20
 24
1e+20
 34
1e+20
 15
-1e+20
 25
-1e+20
 35
-1e+20
146
0.0
 13
0.0
 23
0.0
 33
0.0
 16
1.0
 26
0.0
 36
0.0
 17
0.0
 27
1.0
 37
0.0
 76
1
330
21C
  0
ENDSEC
  0
EOF